<svg version="1.1" xmlns="http://www.w3.org/2000/svg" xmlns:xlink="http://www.w3.org/1999/xlink" width="2000" height="2000"><g fill="none" fill-rule="nonzero" stroke="none" stroke-width="none" stroke-linecap="butt" stroke-linejoin="miter" stroke-miterlimit="10" stroke-dasharray="none" stroke-dashoffset="0" font-family="none" font-weight="none" font-size="none" text-anchor="none" style="mix-blend-mode: normal"><path d="M0,2000v-2000h2000v2000z" fill="#ffffff" stroke="none" stroke-width="1" stroke-dasharray=""/><g fill-opacity="0" fill="#000000" stroke="#000000" stroke-width="2" stroke-dasharray=""><path d="M705.39075,970.40765c0,-9.22524 5.32964,-15.19386 10.46869,-22.34424c10.89772,-15.16289 24.0158,-28.63562 36.94037,-42.11261c12.60649,-13.14532 23.75633,-27.62439 36.12317,-40.99542c25.31491,-27.3705 30.13539,-28.51784 59.56384,-55.71576c9.17852,-8.48283 33.9255,-28.02583 36.15424,-41.81262c0.07319,-0.45274 -0.91724,0 -1.37585,0c-4.7309,0 -9.46179,0 -14.19269,0c-3.8206,0 -7.64119,0 -11.46179,0c-25.46461,0 -40.01775,3.88983 -56.37775,25.67517c-6.45459,8.59507 -7.10669,22.31054 -7.10669,32.43011c0,28.74082 9.5566,52.29313 24.65106,76.08411c0.06893,0.10864 20.80033,29.72983 20.81317,29.7406c10.08742,8.45772 21.36869,15.56077 33.08185,21.56836c3.41736,1.75274 7.61779,1.04057 11.45142,1.2724c43.40008,2.62453 52.76449,-48.81193 63.26727,-80.58398c1.93426,-5.85133 3.413,-11.86762 4.47919,-17.93744c2.00756,-11.42908 6.7816,-45.56134 -9.73425,-48.00903c-25.75178,-3.81648 -42.07508,17.53176 -59.49146,34.32318c-21.79751,21.01535 -48.18177,69.48068 -41.96783,100.1662c1.22777,6.06293 14.20069,18.93383 17.72021,21.53735c26.02802,19.25384 54.1253,30.97318 83.88391,42.11261c11.9696,4.48054 34.56242,12.23036 29.97852,29.82336c-1.83075,7.02642 -21.09363,12.7628 -25.92346,14.03748c-14.26433,3.7646 -28.69788,6.9209 -43.20917,9.5791c-20.73301,3.79791 -39.17966,4.18392 -60.23627,5.42053c-40.45927,2.3761 -79.37294,4.91954 -118.87952,-5.33777c-3.01574,-0.78299 -5.89342,-11.83305 -3.70331,-14.04785c8.04539,-8.1361 32.54385,-10.52676 42.10229,-12.13416c48.24066,-8.11238 95.42691,-14.61903 142.77539,-27.19586c19.20915,-5.10239 51.94622,-14.06288 65.74988,-30.22675c2.18131,-2.55428 2.2904,-6.54938 1.93445,-9.8894c-1.92345,-18.04824 -4.11414,-21.47356 -22.9649,-31.1991c-11.8404,-6.10873 -28.74686,-7.97551 -41.93677,-6.35156c-11.10523,1.36728 -14.97864,29.93053 -13.23065,37.81964c0.35222,1.58967 2.52806,2.06682 3.91022,2.92749c4.24509,2.64342 8.43593,5.42292 12.95135,7.5722c6.78372,3.22896 13.72447,6.18769 20.86499,8.52393c7.78564,2.54731 18.72196,3.19901 26.77167,4.00336" visibility="hidden"/></g><g fill="#000000" stroke="none" stroke-width="1" stroke-dasharray=""><path d="M672.09075,970.40765c0,-18.39108 14.90892,-33.3 33.3,-33.3c18.39108,0 33.3,14.90892 33.3,33.3c0,18.39108 -14.90892,33.3 -33.3,33.3c-18.39108,0 -33.3,-14.90892 -33.3,-33.3z" visibility="hidden"/></g><g fill-opacity="0" fill="#000000" stroke-width="2" stroke-dasharray="0"><g stroke="#e87aff" style="mix-blend-mode: xor"><path d="MNaN,NaNcNaN,NaN NaN,NaN NaN,NaNcNaN,NaN NaN,NaN NaN,NaNcNaN,NaN NaN,NaN NaN,NaNcNaN,NaN NaN,NaN NaN,NaNcNaN,NaN NaN,NaN NaN,NaNcNaN,NaN NaN,NaN NaN,NaNcNaN,NaN NaN,NaN NaN,NaNcNaN,NaN NaN,NaN NaN,NaNcNaN,NaN NaN,NaN NaN,NaNcNaN,NaN NaN,NaN NaN,NaNcNaN,NaN NaN,NaN NaN,NaNcNaN,NaN NaN,NaN NaN,NaNcNaN,NaN NaN,NaN NaN,NaNcNaN,NaN NaN,NaN NaN,NaNcNaN,NaN NaN,NaN NaN,NaNcNaN,NaN NaN,NaN NaN,NaNcNaN,NaN NaN,NaN NaN,NaNcNaN,NaN NaN,NaN NaN,NaNcNaN,NaN NaN,NaN NaN,NaNcNaN,NaN NaN,NaN NaN,NaNcNaN,NaN NaN,NaN NaN,NaNcNaN,NaN NaN,NaN NaN,NaNcNaN,NaN NaN,NaN NaN,NaNcNaN,NaN NaN,NaN NaN,NaNcNaN,NaN NaN,NaN NaN,NaNcNaN,NaN NaN,NaN NaN,NaNcNaN,NaN NaN,NaN NaN,NaNcNaN,NaN NaN,NaN NaN,NaNcNaN,NaN NaN,NaN NaN,NaNcNaN,NaN NaN,NaN NaN,NaNcNaN,NaN NaN,NaN NaN,NaNcNaN,NaN NaN,NaN NaN,NaNcNaN,NaN NaN,NaN NaN,NaNcNaN,NaN NaN,NaN NaN,NaNcNaN,NaN NaN,NaN NaN,NaNcNaN,NaN NaN,NaN NaN,NaNcNaN,NaN NaN,NaN NaN,NaNcNaN,NaN NaN,NaN NaN,NaN" style="mix-blend-mode: normal"/></g><g stroke="#ff7ac6" style="mix-blend-mode: xor"><path d="M699.56172,881.55413c5.42246,-7.46338 13.24249,-9.15941 21.60296,-11.92353c17.72897,-5.86152 36.26079,-9.05057 54.63856,-12.35681c17.92549,-3.22487 35.45649,-8.38498 53.32076,-11.93333c36.56817,-7.26347 41.14241,-5.35828 80.93706,-10.06425c12.41166,-1.46776 43.91947,-2.73246 53.82623,-12.5762c0.32533,-0.32326 -0.74206,-0.53914 -1.11309,-0.80871c-3.82738,-2.78075 -7.65475,-5.5615 -11.48213,-8.34225c-3.09093,-2.24569 -6.18186,-4.49138 -9.27278,-6.73707c-20.6013,-14.96772 -34.66142,-20.37491 -60.70204,-12.36636c-10.27393,3.15965 -18.86324,13.8724 -24.81138,22.05931c-16.89343,23.25181 -23.00568,47.92326 -24.77799,76.04287c-0.00809,0.12841 -0.64694,36.27806 -0.64288,36.29433c3.18957,12.77168 8.14124,25.14913 14.08621,36.89419c1.73447,3.42667 5.55129,5.31946 8.51649,7.76037c33.56874,27.63321 71.3783,-8.4755 98.55038,-28.00624c5.00417,-3.5969 9.73679,-7.595 14.1671,-11.87889c8.342,-8.06631 32.26672,-32.87377 20.34383,-44.56177c-18.59036,-18.22412 -44.34437,-10.54762 -68.30426,-7.20016c-29.98706,4.18952 -79.81959,27.89051 -92.82891,56.36808c-2.57041,5.62667 0.35957,23.66475 1.67662,27.83977c9.73999,30.87557 25.5827,56.87188 43.11034,83.37554c7.05002,10.66039 20.77276,30.20985 6.72339,41.74854c-5.61114,4.60841 -24.56689,-2.0732 -29.22354,-3.88087c-13.75287,-5.33874 -27.28507,-11.26907 -40.58741,-17.64806c-19.00571,-9.11398 -34.15626,-19.64437 -51.91827,-31.02069c-34.12887,-21.85906 -67.10569,-42.67425 -93.03809,-74.19397c-1.97956,-2.40606 2.18742,-13.0372 5.26108,-13.5417c11.29114,-1.85329 32.51601,10.61247 41.19375,14.93037c43.79585,21.7921 85.79484,44.26348 131.49304,61.91935c18.53963,7.16294 50.29133,19.15611 70.9596,14.19286c3.26609,-0.78432 5.7026,-3.95229 7.37785,-6.86366c9.05239,-15.73191 9.29343,-19.79071 -0.24063,-38.73903c-5.98846,-11.90168 -18.56881,-23.3493 -30.1942,-29.78834c-9.78798,-5.42134 -29.7107,15.41008 -32.93365,22.81995c-0.64943,1.4931 0.8304,3.15805 1.4427,4.66676c1.88059,4.63377 3.6373,9.34576 6.02704,13.73866c3.59021,6.59965 7.4663,13.07299 11.86989,19.16013c4.80144,6.6371 13.26606,13.59254 19.30562,18.97478" style="mix-blend-mode: normal"/></g><g stroke="#ff7e7a" style="mix-blend-mode: xor"><path d="M793.14024,861.62743c4.38686,-1.42538 8.04858,0.18681 12.24282,1.52578c8.89417,2.83938 17.32769,6.99574 25.73334,11.05943c8.19878,3.96368 16.80673,7.0286 25.07582,10.84345c16.92681,7.80898 18.21721,9.92398 35.69754,19.71573c5.45198,3.05397 18.56885,11.8023 25.46922,10.73196c0.2266,-0.03515 -0.14172,-0.43617 -0.21258,-0.65426c-0.73096,-2.24967 -1.46193,-4.49935 -2.19289,-6.74902c-0.59031,-1.8168 -1.18063,-3.6336 -1.77094,-5.45041c-3.9345,-12.10914 -8.0328,-18.42856 -20.92011,-22.84218c-5.08449,-1.74133 -11.70733,0.06774 -16.51948,1.6313c-13.66707,4.4407 -23.39029,12.62417 -32.37134,23.47792c-0.04101,0.04956 -10.92355,14.48465 -10.92668,14.49243c-2.46329,6.10364 -4.09794,12.56569 -5.14494,19.06385c-0.30546,1.89586 0.68219,3.78325 1.16428,5.64207c5.45764,21.04348 31.36402,17.54915 48.09529,17.63447c3.08133,0.01571 6.17073,-0.21067 9.22183,-0.64151c5.74504,-0.81124 22.71352,-3.81477 21.32563,-12.04672c-2.16402,-12.83538 -14.8378,-17.29908 -25.51358,-22.98664c-13.36129,-7.11828 -40.48452,-12.17644 -54.11625,-4.48036c-2.69339,1.52061 -6.80945,9.67827 -7.5037,11.75417c-5.13419,15.35194 -6.36581,30.52373 -7.06496,46.39593c-0.28122,6.38417 -0.47569,18.3251 -9.54992,18.86359c-3.62413,0.21507 -9.32822,-8.05866 -10.68061,-10.15843c-3.99414,-6.20143 -7.72515,-12.57732 -11.23132,-19.06713c-5.00944,-9.27232 -8.04316,-17.98459 -11.88463,-27.80653c-7.3812,-18.8724 -14.60317,-36.98397 -15.82964,-57.3553c-0.09362,-1.55505 4.71637,-4.63079 6.10796,-3.93154c5.11203,2.56871 10.03407,13.84905 12.2753,18.146c11.31126,21.68637 21.69603,43.11943 34.99241,63.69174c5.3943,8.34613 14.71343,22.52906 24.53259,26.59564c1.55167,0.64262 3.4683,0.07722 5.00158,-0.60811c8.28526,-3.70326 9.57561,-5.27424 11.28778,-15.74099c1.07543,-6.5743 -0.64906,-14.90223 -3.45924,-20.92349c-2.36603,-5.06959 -16.54714,-2.49825 -20.02856,-0.44809c-0.70151,0.41311 -0.59223,1.52151 -0.78794,2.31174c-0.60112,2.42709 -1.27533,4.84941 -1.5997,7.32871c-0.48732,3.72475 -0.82187,7.48242 -0.82955,11.23891c-0.00837,4.09587 1.37148,9.3971 2.23274,13.34924" style="mix-blend-mode: normal"/></g><g stroke="#ffcd7a" style="mix-blend-mode: xor"><path d="M836.06389,869.08827c2.92457,0.95025 4.26776,3.25465 6.00521,5.62035c3.6844,5.01665 6.60427,10.56309 9.54542,16.04863c2.86877,5.35054 6.31042,10.37667 9.27543,15.67449c6.06938,10.84462 5.93658,12.49098 11.52753,24.6219c1.74378,3.78354 5.3902,13.64184 9.5313,15.76851c0.13599,0.06984 0.09448,-0.29078 0.14172,-0.43617c0.48731,-1.49978 0.97462,-2.99957 1.46193,-4.49935c0.39354,-1.2112 0.78709,-2.4224 1.18063,-3.6336c2.623,-8.07276 2.88891,-13.08705 -2.33229,-20.5175c-2.05994,-2.93157 -6.34083,-4.55107 -9.54893,-5.59344c-9.11138,-2.96047 -17.56229,-2.35687 -26.65929,-0.02224c-0.04154,0.01066 -11.56747,3.53175 -11.57221,3.53472c-3.72032,2.32671 -7.13415,5.17143 -10.24519,8.26591c-0.90766,0.90283 -1.11456,2.3078 -1.58294,3.49925c-5.30248,13.4883 10.03926,21.75524 19.02975,28.35752c1.65574,1.21592 3.4107,2.30442 5.22512,3.26764c3.41644,1.8137 13.74526,6.84297 16.22245,1.85926c3.86248,-7.77068 -1.22393,-15.14446 -4.75314,-22.39539c-4.41699,-9.07492 -17.06369,-22.43143 -27.43165,-23.62228c-2.04853,-0.23529 -7.46513,2.55159 -8.65303,3.39917c-8.78486,6.26812 -15.39429,13.96833 -21.99101,22.25494c-2.65335,3.33307 -7.43738,9.69714 -12.54253,6.43178c-2.03893,-1.30415 -1.87328,-8.00172 -1.77988,-9.66417c0.27586,-4.90984 0.76199,-9.81066 1.41403,-14.68482c0.93161,-6.96396 2.70935,-12.85166 4.48627,-19.65438c3.41427,-13.0711 6.61628,-25.66946 13.93744,-37.13723c0.55886,-0.87539 4.35835,-0.64945 4.8349,0.27299c1.75058,3.3886 -0.01502,11.40133 -0.49002,14.59711c-2.39728,16.12882 -5.195,31.75797 -6.08507,48.06382c-0.3611,6.61524 -0.89256,17.91649 2.80984,23.95748c0.58507,0.95462 1.84035,1.40072 2.93587,1.63192c5.91976,1.2493 7.2313,0.90764 12.25622,-4.06662c3.15621,-3.1244 5.48947,-8.29177 6.33329,-12.6405c0.71045,-3.6614 -7.94566,-7.83153 -10.62671,-8.09c-0.54024,-0.05208 -0.91563,0.58855 -1.33084,0.93806c-1.27528,1.07349 -2.58812,2.11576 -3.73459,3.32584c-1.7224,1.81797 -3.37531,3.71355 -4.85146,5.73658c-1.60951,2.20581 -2.94261,5.6057 -4.02677,8.07475" style="mix-blend-mode: normal"/></g><g stroke="#e1ff7a" style="mix-blend-mode: xor"><path d="M858.42635,886.54732c1.35562,1.86584 1.15474,3.85619 1.16607,6.05755c0.02402,4.66814 -0.6494,9.32071 -1.28305,13.94571c-0.61806,4.51117 -0.74552,9.07806 -1.28194,13.59966c-1.09805,9.25573 -1.90442,10.19614 -3.85981,20.02144c-0.60987,3.06444 -2.74328,10.65357 -1.16814,13.76951c0.05173,0.10232 0.18551,-0.13478 0.27827,-0.20218c0.95684,-0.69519 1.91369,-1.39038 2.87053,-2.08556c0.77273,-0.56142 1.54546,-1.12285 2.3182,-1.68427c5.15033,-3.74193 7.52216,-6.66719 7.62977,-13.47741c0.04245,-2.68687 -1.84109,-5.5567 -3.32813,-7.60343c-4.22336,-5.81295 -9.61715,-9.1722 -16.16606,-11.76595c-0.02991,-0.01184 -8.57564,-2.95645 -8.57982,-2.95674c-3.28306,-0.2283 -6.60851,-0.00718 -9.86034,0.49896c-0.94873,0.14767 -1.69364,0.90895 -2.50307,1.4254c-9.16352,5.84666 -3.49911,17.62597 -0.95456,25.59535c0.46862,1.46769 1.05361,2.9018 1.72991,4.28612c1.27342,2.60658 5.32346,10.21151 9.02354,8.27962c5.76923,-3.01223 5.93364,-9.72865 6.98873,-15.68406c1.32051,-7.45351 -0.46496,-21.1329 -6.23088,-26.42606c-1.13925,-1.04584 -5.65441,-1.74271 -6.74882,-1.7521c-8.09356,-0.06945 -15.49847,1.68905 -23.15417,3.80898c-3.0793,0.85268 -8.7876,2.60518 -10.44572,-1.62667c-0.66223,-1.69015 2.39083,-5.68096 3.18038,-6.6485c2.33183,-2.8575 4.78727,-5.61683 7.33162,-8.28684c3.63525,-3.81478 7.30944,-6.60352 11.38651,-9.94782c7.8339,-6.42592 15.33061,-12.65856 24.82825,-16.38932c0.725,-0.28479 2.93079,1.52727 2.81329,2.29705c-0.43164,2.8278 -5.03526,6.91128 -6.7323,8.64096c-8.56479,8.72955 -17.15228,16.97939 -24.8806,26.4808c-3.13536,3.85469 -8.43986,10.47758 -8.85648,15.77519c-0.06584,0.83715 0.49916,1.66121 1.06196,2.28443c3.04115,3.36769 3.98756,3.73856 9.22934,2.93554c3.29243,-0.50439 6.98615,-2.61116 9.41523,-4.87782c2.04516,-1.90841 -1.36869,-8.25463 -2.8815,-9.59338c-0.30483,-0.26976 -0.81502,-0.04653 -1.22104,-0.01751c-1.24703,0.08916 -2.50308,0.14282 -3.73217,0.37164c-1.84652,0.34377 -3.68509,0.76527 -5.47259,1.34203c-1.949,0.62887 -4.25668,2.10411 -6.00296,3.1243" style="mix-blend-mode: normal"/></g><g stroke="#e87aff" style="mix-blend-mode: xor"><path d="M839.20774,917.01094v0v0v0v0v0v0v0v0v0v0v0v0v0v0v0v0v0v0v0v0v0v0v0v0v0v0v0v0v0v0v0v0v0v0v0v0v0v0" style="mix-blend-mode: normal"/></g><g stroke="#ff7ac6" style="mix-blend-mode: xor"><path d="M762.33332,1038.86545c-5.42246,-7.46338 -4.61896,-15.42477 -4.66427,-24.23021c-0.09608,-18.67256 2.59759,-37.28284 5.13222,-55.78282c2.47224,-18.0447 2.98207,-36.31222 5.12775,-54.39866c4.39222,-37.02293 7.61767,-40.78455 15.43926,-80.08574c2.43949,-12.25775 10.97314,-42.61428 4.67255,-55.07805c-0.2069,-0.40929 -0.74206,0.53914 -1.11309,0.80871c-3.82738,2.78075 -7.65475,5.5615 -11.48213,8.34225c-3.09093,2.24569 -6.18186,4.49138 -9.27278,6.73707c-20.6013,14.96772 -30.08865,26.66878 -30.51907,53.90966c-0.16981,10.74747 7.36437,22.22681 13.31251,30.41372c16.89343,23.25181 38.46858,36.6888 64.66424,47.0638c0.11963,0.04738 34.30257,11.82581 34.3193,11.82698c13.13222,0.9132 26.43403,0.02873 39.44134,-1.99585c3.79494,-0.59068 6.77455,-3.63579 10.01229,-5.70158c36.65406,-23.38664 13.99643,-70.50387 3.81822,-102.38138c-1.87448,-5.87075 -4.21444,-11.60722 -6.91962,-17.14449c-5.09369,-10.42634 -21.29385,-40.84602 -36.09418,-33.11847c-23.0769,12.04892 -23.73455,38.9146 -27.95494,62.73624c-5.28204,29.81402 1.85984,84.53158 24.92352,105.70423c4.55698,4.18335 22.61762,6.97084 26.99529,7.0084c32.37423,0.2778 61.99387,-6.75622 92.61668,-15.23591c12.31721,-3.41073 35.15041,-10.42071 41.78286,6.50668c2.64892,6.76059 -9.56332,22.72385 -12.7215,26.59398c-9.32731,11.42999 -19.14907,22.46731 -29.3265,33.14737c-14.541,15.25913 -29.23777,26.41409 -45.54605,39.79129c-31.3356,25.70367 -61.32243,50.63423 -99.31301,65.55728c-2.90002,1.13915 -11.72317,-6.10908 -11.25316,-9.1882c1.72657,-11.31121 20.14106,-27.64513 26.92919,-34.56385c34.25918,-34.9182 68.60914,-67.91757 99.52239,-105.92318c12.54142,-15.41877 33.75942,-41.91034 35.42593,-63.10076c0.26335,-3.3486 -1.99665,-6.64482 -4.24784,-9.13774c-12.16459,-13.47076 -15.95025,-14.95424 -36.91737,-11.74217c-13.16971,2.01754 -27.94458,10.44466 -37.66091,19.51129c-8.18065,7.63364 5.47474,33.01853 11.52601,38.37351c1.21934,1.07904 3.26009,0.18614 4.88417,0.07002c4.98811,-0.35663 10.01233,-0.57128 14.9287,-1.48657c7.38608,-1.37509 14.74036,-3.0611 21.89037,-5.36813c7.79598,-2.51547 17.02671,-8.41644 24.01185,-12.49721" style="mix-blend-mode: normal"/></g><g stroke="#ff7e7a" style="mix-blend-mode: xor"><path d="M858.07087,1204.54698c-17.54745,-5.70151 -25.60654,-19.5279 -36.03126,-33.72213c-22.10637,-30.09988 -39.62561,-63.37856 -57.27254,-96.29178c-17.21264,-32.10323 -37.86249,-62.26004 -55.65258,-94.04691c-36.41631,-65.06772 -35.61946,-74.94591 -69.16519,-147.73139c-10.46266,-22.70125 -32.34118,-81.85105 -57.18779,-94.61106c-0.81593,-0.41902 -0.56688,1.74469 -0.85032,2.61703c-2.92385,8.9987 -5.84771,17.9974 -8.77156,26.9961c-2.36126,7.26721 -4.72252,14.53442 -7.08378,21.80162c-15.73799,48.43656 -17.33344,78.52232 13.99371,123.10497c12.35965,17.5894 38.04499,27.3064 57.29357,33.56064c54.66828,17.7628 105.37375,14.1412 159.95576,0.13346c0.24925,-0.06397 69.40481,-21.19052 69.43323,-21.2083c22.32192,-13.96026 42.80492,-31.02858 61.47116,-49.59544c5.44595,-5.41695 6.68733,-13.84679 9.49761,-20.9955c31.81487,-80.92981 -60.23557,-130.53145 -114.17852,-170.14515c-9.93446,-7.2955 -20.46421,-13.82651 -31.35075,-19.60587c-20.49867,-10.88218 -82.47156,-41.05783 -97.33471,-11.15556c-23.17486,46.62409 7.34356,90.86678 28.51883,134.37236c26.50196,54.44952 102.38213,134.58859 164.58988,141.73368c12.29117,1.41174 44.7908,-15.30956 51.91818,-20.39504c52.70918,-37.6087 92.36577,-83.80995 131.94605,-133.52966c15.92011,-19.99842 44.62428,-58.18285 75.25515,-38.59067c12.23359,7.82487 11.23971,48.01032 10.67928,57.98499c-1.65514,29.45903 -4.57194,58.86396 -8.4842,88.10893c-5.58964,41.78376 -16.25608,77.10995 -26.9176,117.92626c-20.4856,78.42661 -39.69766,154.01674 -83.62462,222.82336c-3.35317,5.25237 -26.15013,3.89672 -29.00937,-1.63794c-10.50347,-20.33163 0.09012,-68.40799 2.94011,-87.58264c14.3837,-96.77292 31.17002,-190.54782 36.51044,-288.3829c2.16659,-39.69142 5.35534,-107.49893 -16.85903,-143.74486c-3.51041,-5.72774 -11.04211,-8.40434 -17.61521,-9.79153c-35.51855,-7.49581 -43.38781,-5.44583 -73.5373,24.39974c-18.93727,18.74638 -32.93685,49.75064 -37.99974,75.84299c-4.26269,21.96842 47.67393,46.98916 63.76024,48.54002c3.24142,0.3125 5.49375,-3.53129 7.98506,-5.62839c7.65168,-6.44092 15.52871,-12.69455 22.40757,-19.95506c10.33441,-10.90779 20.25187,-22.28129 29.10874,-34.41949c9.65705,-13.23484 17.65568,-33.63419 24.16064,-48.44853" style="mix-blend-mode: normal"/></g><g stroke="#ffcd7a" style="mix-blend-mode: xor"><path d="M1115.61279,1249.31205c-26.32117,8.55227 -48.2915,-1.12088 -73.45691,-9.1547c-53.36504,-17.03628 -103.96616,-41.97447 -154.40002,-66.3566c-49.19269,-23.78209 -100.8404,-42.17163 -150.45491,-65.06068c-101.56088,-46.85388 -109.30327,-59.54387 -214.18523,-118.29439c-32.7119,-18.32385 -111.41311,-70.81383 -152.81532,-64.39173c-1.3596,0.21089 0.85032,2.61703 1.27549,3.92555c4.38578,13.49805 8.77156,26.9961 13.15735,40.49415c3.54189,10.90081 7.08378,21.80162 10.62567,32.70244c23.60699,72.65485 48.19682,110.57135 125.52066,137.05308c30.50693,10.44796 70.24401,-0.40641 99.11688,-9.78778c82.00242,-26.6442 140.34171,-75.74499 194.22806,-140.86751c0.24608,-0.29739 65.54128,-86.90792 65.5601,-86.95456c14.77977,-36.62187 24.58766,-75.39412 30.86963,-114.38309c1.83279,-11.37518 -4.09316,-22.69951 -6.98567,-33.85241c-32.74586,-126.26086 -188.18409,-105.29488 -288.57176,-105.80679c-18.48799,-0.09428 -37.02436,1.26402 -55.33099,3.84904c-34.47023,4.86742 -136.28112,22.88862 -127.95376,72.2803c12.98414,77.01228 89.02683,103.79451 153.08147,137.91987c80.16774,42.70968 242.90711,73.05863 324.69747,26.88217c16.16035,-9.12366 40.85668,-58.06959 45.02218,-70.525c30.80517,-92.11164 38.19483,-183.14237 42.38975,-278.37556c1.68729,-38.30499 2.85417,-109.95062 57.2995,-113.18157c21.74478,-1.2904 55.96931,48.35195 64.08367,60.95058c23.96482,37.20858 46.35089,75.4639 67.3879,114.40277c30.05664,55.63392 48.25897,107.90752 71.30779,166.83917c44.28722,113.23439 87.61904,221.90379 94.97781,344.1318c0.56173,9.3303 -28.2982,27.78475 -36.64775,23.58924c-30.67217,-15.41227 -60.20445,-83.09429 -73.65178,-108.87601c-67.86755,-130.1182 -130.17619,-258.71656 -209.95447,-382.15045c-32.36583,-50.07679 -88.28059,-135.17437 -147.19552,-159.57382c-9.30999,-3.8557 -20.8098,-0.4633 -30.00948,3.64867c-49.71156,22.21956 -57.45368,31.64543 -67.72668,94.44592c-6.4526,39.44579 3.89433,89.41336 20.75544,125.54093c14.19618,30.41756 99.28283,14.98949 120.17134,2.68856c4.20907,-2.47866 3.55335,-9.12903 4.72766,-13.87045c3.6067,-14.56254 7.65198,-29.09648 9.59822,-43.97223c2.92392,-22.34851 4.93124,-44.89455 4.9773,-67.43347c0.05021,-24.57523 -8.2289,-56.38257 -13.39644,-80.09542" style="mix-blend-mode: normal"/></g><g stroke="#e1ff7a" style="mix-blend-mode: xor"><path d="M1397.79184,1058.83819c-21.68984,29.8535 -52.96998,36.63763 -86.41184,47.69411c-70.91587,23.44606 -145.04315,36.20229 -218.55423,49.42725c-71.70197,12.8995 -141.82595,33.53992 -213.28305,47.73331c-146.27267,29.05387 -164.56962,21.43313 -323.74825,40.25699c-49.64662,5.87102 -175.67789,10.92985 -215.30494,50.30478c-1.3013,1.29302 2.96824,2.15655 4.45236,3.23483c15.3095,11.123 30.619,22.24601 45.9285,33.36901c12.36371,8.98276 24.72743,17.96553 37.09114,26.94829c82.4052,59.87089 138.64567,81.49962 242.80817,49.46543c41.09571,-12.6386 75.45295,-55.48958 99.2455,-88.23723c67.57371,-93.00723 92.02272,-191.69303 99.11195,-304.17146c0.03237,-0.51364 2.58776,-145.11225 2.57151,-145.17731c-12.75829,-51.08672 -32.56496,-100.59652 -56.34486,-147.57677c-6.93788,-13.70667 -22.20516,-21.27785 -34.06597,-31.04147c-134.27497,-110.53286 -285.51321,33.90199 -394.20151,112.02497c-20.01669,14.3876 -38.94715,30.37999 -56.6684,47.51557c-33.368,32.26522 -129.06687,131.49508 -81.3753,178.2471c74.36144,72.89647 177.37746,42.19048 273.21703,28.80065c119.94825,-16.75808 319.27835,-111.56205 371.31562,-225.47233c10.28166,-22.50669 -1.43827,-94.65899 -6.70646,-111.35906c-38.95994,-123.50227 -102.33082,-227.48753 -172.44135,-333.50217c-28.20008,-42.64154 -83.09104,-120.83941 -26.89358,-166.99415c22.44456,-18.43363 98.26758,8.29282 116.89417,15.52349c55.01147,21.35494 109.1403,45.07628 162.34962,70.59222c76.02285,36.45591 136.62503,78.57747 207.67309,124.08275c136.51549,87.43623 268.42275,170.69702 372.15235,296.77589c7.91822,9.62426 -8.74967,52.1488 -21.04432,54.1668c-45.16455,7.41314 -130.06403,-42.44987 -164.775,-59.72148c-175.18341,-87.16838 -343.17937,-177.05394 -525.97218,-247.67742c-74.15854,-28.65175 -201.16533,-76.62445 -283.83842,-56.77143c-13.06436,3.13726 -22.81041,15.80917 -29.51139,27.45462c-36.20956,62.92763 -37.17372,79.16282 0.96252,154.95613c23.95386,47.60674 74.27524,93.39719 120.77681,119.15334c39.15193,21.68535 118.8428,-61.64031 131.7346,-91.2798c2.59772,-5.97241 -3.32158,-12.6322 -5.77079,-18.66703c-7.52236,-18.53508 -14.5492,-37.38302 -24.10814,-54.95463c-14.36083,-26.39861 -29.86519,-52.29195 -47.47958,-76.64054c-19.20578,-26.54839 -53.06422,-54.37018 -77.22248,-75.8991" style="mix-blend-mode: normal"/></g><g stroke="#91ff7a" style="mix-blend-mode: xor"><path d="M1508.29273,650.02739c0,46.1262 -26.6482,75.96929 -52.34344,111.72119c-54.48861,75.81446 -120.079,143.17812 -184.70184,210.56305c-63.03247,65.72659 -118.78166,138.12196 -180.61584,204.97711c-126.57455,136.85249 -150.67693,142.5892 -297.81921,278.5788c-45.89258,42.41414 -169.62749,140.12914 -180.77118,209.06311c-0.36594,2.2637 4.58618,0 6.87927,0c23.65448,0 47.30896,0 70.96344,0c19.10299,0 38.20597,0 57.30896,0c127.32304,0 200.08873,-19.44913 281.88873,-128.37585c32.27293,-42.97536 35.53345,-111.55268 35.53345,-162.15057c0,-143.70408 -47.78299,-261.46565 -123.25531,-380.42053c-0.34465,-0.54322 -104.00163,-148.64915 -104.06586,-148.703c-50.43712,-42.28862 -106.84344,-77.80386 -165.40924,-107.8418c-17.0868,-8.76368 -38.08895,-5.20285 -57.25708,-6.362c-217.0004,-13.12264 -263.82243,244.05967 -316.33636,402.91992c-9.67128,29.25666 -17.065,59.33811 -22.39594,89.68719c-10.03782,57.14542 -33.90802,227.8067 48.67126,240.04517c128.75892,19.08241 210.37541,-87.6588 297.45728,-171.61591c108.98753,-105.07673 240.90886,-347.40338 209.83917,-500.83099c-6.13883,-30.31463 -71.00343,-94.66917 -88.60107,-107.68677c-130.14008,-96.2692 -270.62648,-154.86592 -419.41956,-210.56305c-59.84802,-22.40268 -172.81211,-61.15181 -149.89258,-149.11682c9.15377,-35.13212 105.46817,-63.814 129.61731,-70.18738c71.32167,-18.82302 143.48941,-34.60448 216.04584,-47.89551c103.66503,-18.98957 195.89831,-20.91958 301.18134,-27.10266c202.29635,-11.88049 396.8647,-24.59769 594.39758,26.68884c15.07872,3.91497 29.46708,59.16525 18.51654,70.23926c-40.22694,40.68052 -162.71927,52.63381 -210.51147,60.67078c-241.20331,40.56191 -477.13454,73.09516 -713.87695,135.97931c-96.04574,25.51193 -259.73112,70.31441 -328.74939,151.13373c-10.90656,12.77142 -11.45202,32.74688 -9.67224,49.44702c9.61723,90.2412 20.57071,107.36779 114.82452,155.99548c59.20202,30.54367 143.73429,39.87753 209.68384,31.75781c55.52613,-6.83638 74.89322,-149.65263 66.15326,-189.09821c-1.76112,-7.94835 -12.6403,-10.33411 -19.55109,-14.63745c-21.22545,-13.21708 -42.17967,-27.11462 -64.75677,-37.86102c-33.91859,-16.1448 -68.62235,-30.93845 -104.32495,-42.61963c-38.92819,-12.73653 -93.60981,-15.99503 -133.85834,-20.01678" style="mix-blend-mode: normal"/></g><g stroke="#7affb3" style="mix-blend-mode: xor"><path d="M1300.4543,185.88393c32.53476,44.78026 27.71374,92.54864 27.9856,145.38126c0.57649,112.03535 -15.58556,223.69703 -30.79329,334.69693c-14.83347,108.26819 -17.8924,217.87334 -30.76652,326.39196c-26.35331,222.13757 -45.70604,244.70732 -92.63556,480.51447c-14.63696,73.54649 -65.83882,255.68568 -28.03529,330.46829c1.24142,2.45576 4.45236,-3.23483 6.67854,-4.85224c22.96425,-16.68451 45.9285,-33.36901 68.89275,-50.05352c18.54557,-13.47414 37.09114,-26.94829 55.63671,-40.42243c123.60781,-89.80633 180.53192,-160.01265 183.11441,-323.45795c1.01888,-64.48482 -44.18623,-133.36086 -79.87506,-182.48233c-101.36057,-139.51085 -230.81149,-220.13282 -387.98546,-282.38283c-0.71775,-0.28427 -205.81543,-70.95488 -205.91577,-70.96186c-78.79333,-5.47922 -158.60415,-0.17238 -236.64805,11.97512c-22.76961,3.54408 -40.64732,21.81472 -60.07373,34.20948c-219.92437,140.31983 -83.97859,423.02323 -22.90933,614.2883c11.24688,35.22452 25.28663,69.64332 41.51774,102.86696c30.56216,62.55803 127.7631,245.07615 216.56507,198.71084c138.46142,-72.29352 142.40728,-233.48762 167.72963,-376.41742c31.69225,-178.88415 -11.15907,-507.18949 -149.54114,-634.22539c-27.34189,-25.10008 -135.70574,-41.82504 -161.97176,-42.05042c-194.24538,-1.66679 -371.96319,40.53732 -555.70008,91.41545c-73.90324,20.46436 -210.90247,62.52427 -250.69717,-39.04007c-15.8935,-40.56353 57.37994,-136.3431 76.329,-159.56391c55.96386,-68.57997 114.89444,-134.80388 175.95898,-198.8842c87.24598,-91.55479 175.42661,-158.48453 273.27633,-238.74775c188.01361,-154.22199 367.93455,-303.8054 595.87807,-393.34369c17.40012,-6.83493 70.33899,36.65445 67.51896,55.1292c-10.35944,67.86724 -120.84633,165.87076 -161.57517,207.38308c-205.55506,209.50922 -411.65483,407.50545 -597.13435,635.5391c-75.24853,92.51262 -202.55654,251.46201 -212.5556,378.60456c-1.5801,20.09161 11.97991,39.86893 25.48707,54.82642c72.98754,80.82456 95.70151,89.72545 221.5042,70.453c79.01827,-12.10527 167.66748,-62.66795 225.96547,-117.06775c49.08391,-45.80183 -32.84847,-198.11118 -69.15603,-230.24109c-7.31603,-6.47423 -19.56054,-1.11682 -29.30501,-0.42013c-29.92866,2.1398 -60.07397,3.42768 -89.57218,8.91944c-44.31647,8.25052 -88.44218,18.36657 -131.34222,32.2088c-46.7759,15.09282 -102.16028,50.49865 -144.07109,74.98325" style="mix-blend-mode: normal"/></g><g stroke="#7afbff" style="mix-blend-mode: xor"><path d="M773.1868,-89.36518c61.41607,19.95529 89.62289,68.34764 126.10941,118.02745c77.3723,105.34959 138.68964,221.82494 200.45389,337.02123c60.24424,112.36131 132.51873,217.91015 194.78403,329.1642c127.45707,227.73701 124.66812,262.31067 242.07817,517.05988c36.61932,79.45437 113.19414,286.47867 200.15725,331.13873c2.85576,1.46658 1.98409,-6.10641 2.97614,-9.15961c10.23349,-31.49545 20.46698,-62.99089 30.70047,-94.48634c8.26441,-25.43523 16.52881,-50.87046 24.79322,-76.30568c55.08298,-169.52797 60.66704,-274.82812 -48.978,-430.86741c-43.25876,-61.5629 -133.15745,-95.57239 -200.52749,-117.46224c-191.33898,-62.1698 -368.80811,-49.4942 -559.84518,-0.4671c-0.87239,0.22389 -242.91682,74.16684 -243.01631,74.22906c-78.12671,48.8609 -149.81723,108.60001 -215.14907,173.58402c-19.06082,18.95934 -23.40567,48.46376 -33.24164,73.48425c-111.35206,283.25433 210.82449,456.86008 399.62483,595.50801c34.7706,25.53423 71.62473,48.39277 109.72761,68.62053c71.74533,38.08761 288.65044,143.70242 340.67147,39.04448c81.11201,-163.18431 -25.70245,-318.03375 -99.8159,-470.30328c-92.75687,-190.57331 -358.33744,-471.06008 -576.06459,-496.06788c-43.01909,-4.94111 -156.76779,53.58344 -181.71362,71.38262c-184.48212,131.63046 -323.28019,293.33483 -461.81118,467.3538c-55.72038,69.99446 -156.18498,203.63999 -263.39303,135.06735c-42.81755,-27.38705 -39.33897,-168.03613 -37.3775,-202.94747c5.79299,-103.1066 16.00179,-206.02387 29.6947,-308.38126c19.56374,-146.24316 56.89628,-269.88482 94.21158,-412.74192c71.69959,-274.49315 138.9418,-539.0586 292.68617,-779.88174c11.73611,-18.38329 91.52545,-13.63851 101.5328,5.73279c36.76213,71.16069 -0.31541,239.42795 -10.2904,306.53925c-50.34296,338.70522 -109.09507,666.91738 -127.78654,1009.34014c-7.58308,138.91997 -18.74369,376.24625 59.0066,503.107c12.28644,20.04708 38.64738,29.4152 61.65324,34.27035c124.31492,26.23535 151.85735,19.06039 257.38055,-85.3991c66.28046,-65.61233 115.27897,-174.12723 132.99908,-265.45047c14.91942,-76.88947 -166.85876,-164.46205 -223.16084,-169.89007c-11.34496,-1.09375 -19.22814,12.35951 -27.94773,19.69935c-26.7809,22.54322 -54.35048,44.43092 -78.42648,69.84271c-36.17045,38.17727 -70.88156,77.98452 -101.8806,120.46823c-33.79969,46.32195 -61.79488,117.71967 -84.56223,169.56984" style="mix-blend-mode: normal"/></g><g stroke="#7aacff" style="mix-blend-mode: xor"><path d="M102.12762,30.87466c70.1898,-22.80605 128.77734,2.98902 195.88509,24.41252c142.30679,45.43007 277.24309,111.93191 411.73339,176.95093c131.18049,63.4189 268.90774,112.45767 401.21309,173.49514c270.82902,124.94369 291.47539,158.78366 571.1606,315.45171c87.23173,48.86359 297.10162,188.83688 407.50752,171.71129c3.62559,-0.56238 -2.26753,-6.97875 -3.4013,-10.46812c-11.69542,-35.9948 -23.39084,-71.98959 -35.08625,-107.98439c-9.44504,-29.06883 -18.89007,-58.13766 -28.33511,-87.2065c-62.95197,-193.74626 -128.52486,-294.85692 -334.72176,-365.47487c-81.35181,-27.86122 -187.31735,1.08377 -264.31168,26.10075c-218.67312,71.0512 -374.24456,201.98665 -517.94151,375.64668c-0.65621,0.79304 -174.77676,231.75446 -174.82695,231.87883c-39.41271,97.65832 -65.56709,201.05099 -82.319,305.02157c-4.88744,30.33382 10.91509,60.53202 18.62846,90.2731c87.3223,336.69562 501.82425,280.78634 769.52469,282.15145c49.30132,0.25141 98.73164,-3.37073 147.5493,-10.26411c91.9206,-12.97979 363.41632,-61.03631 341.21003,-192.74745c-34.62438,-205.36608 -237.40488,-276.78535 -408.21725,-367.78632c-213.78065,-113.89249 -647.75228,-194.82303 -865.85992,-71.6858c-43.09427,24.32977 -108.95114,154.85224 -120.05914,188.06667c-82.14712,245.63103 -101.85289,488.37965 -113.03934,742.33482c-4.49945,102.14665 -7.61111,293.20165 -152.79867,301.81751c-57.98609,3.44107 -149.25149,-128.93853 -170.88978,-162.53487c-63.90619,-99.22289 -123.60236,-201.23706 -179.70107,-305.07404c-80.15105,-148.35712 -128.69058,-287.75338 -190.1541,-444.90446c-118.09924,-301.95838 -233.65076,-591.74345 -253.27417,-917.6848c-1.49796,-24.88081 75.46187,-74.09268 97.72733,-62.90464c81.79245,41.09939 160.5452,221.58477 196.40474,290.33601c180.98014,346.98186 347.1365,689.91083 559.87859,1019.06786c86.30888,133.5381 235.4149,360.465 392.52138,425.53017c24.82664,10.28188 55.49281,1.23548 80.02528,-9.7298c132.56415,-59.25216 153.20982,-84.3878 180.60447,-251.85579c17.20692,-105.18876 -10.38488,-238.43562 -55.34783,-334.77581c-37.85649,-81.11349 -264.75422,-39.97197 -320.4569,-7.16949c-11.22418,6.60975 -9.4756,24.34408 -12.60708,36.98785c-9.61786,38.83344 -20.40528,77.59061 -25.59525,117.25928c-7.79711,59.59602 -13.14998,119.71879 -13.27279,179.82258c-0.1339,65.53394 21.94374,150.35353 35.72385,213.58779" style="mix-blend-mode: normal"/></g><g stroke="#987aff" style="mix-blend-mode: xor"><path d="M-417.60646,597.89964c48.80214,-67.17039 119.18245,-82.43466 194.42665,-107.31175c159.5607,-52.75364 326.34709,-81.45515 491.74701,-111.21132c161.32944,-29.02387 319.10838,-75.46482 479.88686,-107.39995c329.1135,-65.3712 370.28165,-48.22454 728.43356,-90.57823c111.7049,-13.2098 395.27526,-24.59217 484.4361,-113.18576c2.92793,-2.9093 -6.67854,-4.85224 -10.01781,-7.27836c-34.44638,-25.02676 -68.89275,-50.05352 -103.33913,-75.08027c-27.81835,-20.21122 -55.63671,-40.42243 -83.45506,-60.63365c-185.41171,-134.70949 -311.95276,-183.37415 -546.31838,-111.29723c-92.46534,28.43684 -169.76913,124.85156 -223.30238,198.53376c-152.04085,209.26627 -207.05112,431.30933 -223.00189,684.38579c-0.07284,1.1557 -5.82245,326.50256 -5.78589,326.64894c28.70614,114.94513 73.27116,226.34217 126.77592,332.04773c15.61022,30.84001 49.96161,47.87516 76.64843,69.8433c302.11869,248.69893 642.40471,-76.27947 886.95339,-252.05619c45.03755,-32.37209 87.63109,-68.35498 127.5039,-106.91004c75.078,-72.59675 290.40045,-295.86394 183.09443,-401.05597c-167.31323,-164.01707 -399.09929,-94.92859 -614.73832,-64.80147c-269.88356,37.70568 -718.37629,251.01461 -835.46015,507.31275c-23.13373,50.64005 3.23611,212.98272 15.08955,250.55789c87.65987,277.88011 230.24434,511.84695 387.99305,750.37989c63.45018,95.94348 186.95485,271.88866 60.51055,375.73684c-50.50026,41.47566 -221.10205,-18.65884 -263.01188,-34.92785c-123.77581,-48.04862 -245.56567,-101.42163 -365.28665,-158.8325c-171.05141,-82.02581 -307.40632,-176.79931 -467.26445,-279.18618c-307.15985,-196.73153 -603.9512,-384.06829 -837.34279,-667.74575c-17.816,-21.65458 19.68677,-117.33481 47.34973,-121.8753c101.62023,-16.67957 292.64406,95.51221 370.74375,134.37333c394.16268,196.12886 772.15358,398.37135 1183.4374,557.27419c166.85671,64.46644 452.622,172.40502 638.63644,127.73572c29.3948,-7.05884 51.32342,-35.57062 66.40063,-61.7729c81.4715,-141.58716 83.64087,-178.11635 -2.16566,-348.65129c-53.89617,-107.11516 -167.1193,-210.14369 -271.74783,-268.09502c-88.09184,-48.79204 -267.39629,138.6907 -296.40285,205.37955c-5.84487,13.43791 7.47357,28.42245 12.98427,42.00082c16.9253,41.70392 32.73569,84.1118 54.24332,123.64792c32.31188,59.39688 67.19668,117.65689 106.82904,172.44121c43.213,59.73388 119.3945,122.33289 173.75058,170.77298" style="mix-blend-mode: normal"/></g><g stroke="#e87aff" style="mix-blend-mode: xor"><path d="M-498.96222,1450.97804c0,-92.2524 53.29639,-151.93859 104.68689,-223.44238c108.97723,-151.62891 240.158,-286.35623 369.40369,-421.1261c126.06495,-131.45318 237.56333,-276.24391 361.23169,-409.95422c253.1491,-273.70497 301.35386,-285.1784 595.63843,-557.15759c91.78516,-84.82828 339.25499,-280.25828 361.54236,-418.12622c0.73189,-4.52741 -9.17236,0 -13.75854,0c-47.30896,0 -94.61792,0 -141.92688,0c-38.20597,0 -76.41195,0 -114.61792,0c-254.64609,0 -400.17745,38.89825 -563.77747,256.75171c-64.54586,85.95072 -71.06689,223.10537 -71.06689,324.30115c0,287.40816 95.56599,522.9313 246.51062,760.84106c0.6893,1.08644 208.00325,297.2983 208.13171,297.40601c100.87423,84.57724 213.68689,155.60773 330.81848,215.68359c34.1736,17.52737 76.1779,10.40569 114.51416,12.724c434.0008,26.24528 527.64487,-488.11934 632.67273,-805.83984c19.34256,-58.51331 34.13,-118.67623 44.79187,-179.37439c20.07564,-114.29083 67.81604,-455.61339 -97.34253,-480.09033c-257.51784,-38.16483 -420.75082,175.31759 -594.91455,343.23181c-217.97506,210.15346 -481.81771,694.80675 -419.67834,1001.66199c12.27766,60.62925 142.00685,189.33834 177.20215,215.37354c260.28017,192.53839 541.25297,309.73183 838.83911,421.1261c119.69604,44.80536 345.62422,122.30361 299.78516,298.23364c-18.30755,70.26425 -210.93635,127.62801 -259.23462,140.37476c-142.64334,37.64605 -286.97882,69.20895 -432.09167,95.79102c-207.33006,37.97914 -391.79663,41.83917 -602.36267,54.20532c-404.5927,23.76098 -793.72939,49.19537 -1188.79517,-53.37769c-30.15743,-7.82994 -58.93416,-118.3305 -37.03308,-140.47852c80.45388,-81.36104 325.43854,-105.26762 421.02295,-121.34155c482.40662,-81.12381 954.26908,-146.19032 1427.75391,-271.95862c192.09149,-51.02385 519.46224,-140.62883 657.49878,-302.26746c21.81313,-25.54283 22.90403,-65.49377 19.34448,-98.89404c-19.23447,-180.48241 -41.14141,-214.73558 -229.64905,-311.99097c-118.40403,-61.08734 -287.46857,-79.75506 -419.36768,-63.51562c-111.05226,13.67277 -149.78644,299.30526 -132.30652,378.19641c3.52223,15.8967 25.2806,20.66821 39.10217,29.2749c42.45089,26.43416 84.35934,54.22924 129.51355,75.72205c67.83718,32.2896 137.24471,61.8769 208.6499,85.23926c77.85638,25.47306 187.21961,31.99007 267.71667,40.03357" style="mix-blend-mode: normal"/></g><g stroke="#ff7ac6" style="mix-blend-mode: xor"><path d="M-6.41094,2257.41048c-59.64706,-82.09714 -50.80853,-169.67251 -51.30693,-266.5323c-1.05689,-205.39813 28.57353,-410.11123 56.45437,-613.61103c27.19469,-198.49168 32.80274,-399.43446 56.40528,-598.38525c48.31439,-407.25221 83.79441,-448.63008 169.83185,-880.94319c26.83444,-134.83523 120.7045,-468.75707 51.39803,-605.85853c-2.27594,-4.50224 -8.16266,5.93052 -12.24399,8.89578c-42.10113,30.58826 -84.20226,61.17652 -126.30338,91.76478c-34.00021,24.7026 -68.00042,49.4052 -102.00063,74.1078c-226.61431,164.64494 -330.97519,293.35653 -335.70975,593.00623c-1.86795,118.22217 81.00809,244.49491 146.43762,334.55093c185.8277,255.76989 423.15439,403.57683 711.30668,517.70185c1.31588,0.52116 377.3283,130.08394 377.51225,130.09674c144.45444,10.04524 290.77428,0.31602 433.85475,-21.95439c41.74429,-6.49748 74.52008,-39.99365 110.13517,-62.71738c403.19467,-257.25303 153.96075,-775.54258 42.00044,-1126.19521c-20.61928,-64.57829 -46.35883,-127.67941 -76.11586,-188.58942c-56.03062,-114.68973 -234.23235,-449.30627 -397.03596,-364.30321c-253.84594,132.53811 -261.08001,428.06064 -307.50432,690.0986c-58.10246,327.95427 20.45829,929.8474 274.15875,1162.74654c50.12679,46.01682 248.79386,76.67924 296.94823,77.09244c356.11654,3.05579 681.93252,-74.31842 1018.78349,-167.595c135.48926,-37.518 386.65453,-114.62783 459.61149,71.57347c29.13809,74.36646 -105.19655,249.96235 -139.9365,292.53383c-102.60041,125.72994 -210.63981,247.14045 -322.59146,364.62104c-159.95096,167.85045 -321.61545,290.55497 -501.0066,437.70421c-344.69161,282.74032 -674.54668,556.97656 -1092.44312,721.13009c-31.90022,12.5307 -128.95482,-67.19983 -123.78475,-101.07021c18.99231,-124.42327 221.55161,-304.09639 296.22114,-380.2023c376.85095,-384.10024 754.70053,-747.09332 1094.7463,-1165.15502c137.95563,-169.60647 371.35365,-461.01369 389.68527,-694.10835c2.89684,-36.83462 -21.96317,-73.09304 -46.72629,-100.5151c-133.8105,-148.17836 -175.45276,-164.49666 -406.09104,-129.16384c-144.86683,22.19299 -307.39039,114.89125 -414.27004,214.62421c-89.98717,83.97002 60.22219,363.20383 126.78606,422.10866c13.41273,11.86942 35.86099,2.04751 53.72585,0.77023c54.86921,-3.92296 110.13562,-6.28408 164.21566,-16.35231c81.24686,-15.12595 162.14399,-33.67205 240.79407,-59.04946c85.75581,-27.67016 187.29385,-92.58086 264.13033,-137.46928" style="mix-blend-mode: normal"/></g><g stroke="#ff7e7a" style="mix-blend-mode: xor"><path d="M952.3865,2642.22715c-105.2847,-34.20907 -153.63923,-117.16738 -216.18757,-202.33277c-132.63822,-180.5993 -237.75367,-380.27133 -343.63524,-577.75069c-103.27583,-192.61939 -227.17496,-373.56026 -333.91549,-564.28149c-218.49783,-390.40631 -213.71678,-449.67543 -414.99116,-886.38837c-62.77597,-136.2075 -194.04709,-491.10629 -343.12672,-567.66639c-4.89558,-2.51414 -3.4013,10.46812 -5.10195,15.70218c-17.54313,53.99219 -35.08625,107.98439 -52.62938,161.97658c-14.16755,43.60325 -28.33511,87.2065 -42.50266,130.80974c-94.42796,290.61938 -104.00064,471.13391 83.96228,738.62985c74.15787,105.5364 228.26992,163.83838 343.76141,201.36384c328.00968,106.57681 632.24248,84.84721 959.73459,0.80074c1.49553,-0.38381 416.42883,-127.14315 416.59939,-127.24982c133.9315,-83.76155 256.82955,-186.17145 368.82698,-297.57261c32.67569,-32.50172 40.124,-83.08074 56.98568,-125.97301c190.88924,-485.57886 -361.41342,-783.18871 -685.07113,-1020.87087c-59.60675,-43.77297 -122.78526,-82.95903 -188.10448,-117.6352c-122.99199,-65.29305 -494.82933,-246.347 -584.00824,-66.93339c-139.04916,279.74453 44.06135,545.20071 171.11297,806.23419c159.01178,326.6971 614.29275,807.53156 987.5393,850.40208c73.74702,8.47047 268.74479,-91.85733 311.50906,-122.37021c316.25507,-225.65222 554.19461,-502.85972 791.67631,-801.17794c95.52064,-119.9905 267.74568,-349.09712 451.53091,-231.54403c73.40151,46.94923 67.43824,288.06193 64.07571,347.90995c-9.93084,176.75418 -27.43165,353.18378 -50.9052,528.65359c-33.53785,250.70256 -97.53648,462.6597 -161.50557,707.55757c-122.91358,470.55968 -238.18595,924.10046 -501.74773,1336.94013c-20.11905,31.51421 -156.90077,23.38029 -174.05623,-9.82763c-63.02079,-121.98975 0.5407,-410.44791 17.64069,-525.49587c86.30221,-580.63751 187.02013,-1143.28694 219.06265,-1730.29739c12.99956,-238.14851 32.13204,-644.99357 -101.15416,-862.46914c-21.06246,-34.36643 -66.25264,-50.42606 -105.69126,-58.74916c-213.1113,-44.97488 -260.32688,-32.67496 -441.2238,146.39846c-113.62365,112.47828 -197.62109,298.50383 -227.99843,455.05794c-25.57615,131.81052 286.04359,281.93494 382.56144,291.24011c19.4485,1.87501 32.96253,-21.18774 47.91039,-33.77032c45.91011,-38.64552 93.17225,-76.16729 134.4454,-119.73037c62.00649,-65.44675 121.51125,-133.68775 174.65246,-206.51696c57.94232,-79.40906 105.93409,-201.80515 144.96383,-290.69116" style="mix-blend-mode: normal"/></g><g stroke="#ffcd7a" style="mix-blend-mode: xor"><path d="M2036.96294,2356.98241c-114.05842,37.05983 -209.26318,-4.85716 -318.31327,-39.67035c-231.24853,-73.82387 -450.52002,-181.88936 -669.06676,-287.54526c-213.1683,-103.05571 -436.97508,-182.74372 -651.97128,-281.92961c-440.09715,-203.03349 -473.64752,-258.02346 -928.13598,-512.60904c-141.75156,-79.40334 -482.79013,-306.85992 -662.19972,-279.03084c-5.89158,0.91387 3.68474,11.34047 5.52711,17.0107c19.00505,58.49154 38.01011,116.98309 57.01516,175.47463c15.34818,47.23685 30.69637,94.4737 46.04455,141.71056c102.29696,314.83767 208.85289,479.1425 543.92287,593.89667c132.19669,45.27449 304.3907,-1.76113 429.50648,-42.41371c355.34382,-115.45821 608.14742,-328.2283 841.65495,-610.42586c1.06634,-1.28869 284.01223,-376.601 284.09379,-376.80309c64.04565,-158.69477 106.54652,-326.70786 133.76838,-495.66006c7.94208,-49.29246 -17.73702,-98.36453 -30.27125,-146.69378c-141.89874,-547.13038 -815.4644,-456.2778 -1250.47762,-458.49611c-80.11464,-0.40854 -160.43891,5.47744 -239.76762,16.67918c-149.37098,21.09216 -590.55151,99.18401 -554.46631,313.21461c56.26462,333.71989 385.78292,449.7762 663.35302,597.65277c347.39356,185.07529 1052.59746,316.58742 1407.02237,116.48942c70.02819,-39.53588 177.04561,-251.6349 195.09611,-305.60834c133.48907,-399.15042 165.51094,-793.61693 183.68893,-1206.29408c7.31161,-165.98831 12.36806,-476.45267 248.29784,-490.45346c94.2274,-5.59174 242.53367,209.52511 277.6959,264.11917c103.84756,161.2372 200.85384,327.01023 292.01424,495.74532c130.24546,241.08033 209.1222,467.59924 309.00042,722.96975c191.91127,490.68237 379.68249,961.5831 411.57053,1491.2378c2.43418,40.43131 -122.62553,120.4006 -158.8069,102.22004c-132.91273,-66.78651 -260.88594,-360.07525 -319.1577,-471.79602c-294.09273,-563.84552 -564.09681,-1121.10509 -909.80271,-1655.98527c-140.25193,-216.99941 -382.54921,-585.75562 -637.84725,-691.48653c-40.3433,-16.70805 -90.17581,-2.00765 -130.04108,15.81092c-215.41675,96.28475 -248.96596,137.13018 -293.48226,409.26565c-27.96125,170.93174 16.87544,387.45789 89.94023,544.0107c61.5168,131.80942 430.2256,64.95444 520.74246,11.65042c18.2393,-10.74085 15.39785,-39.55914 20.48651,-60.10526c15.62903,-63.10434 33.15859,-126.08474 41.59227,-190.54634c12.67031,-96.84354 21.36872,-194.54303 21.56828,-292.2117c0.21759,-106.49266 -35.65858,-244.32448 -58.05126,-347.08016" style="mix-blend-mode: normal"/></g><g stroke="#e1ff7a" style="mix-blend-mode: xor"><path d="M2794.25207,1413.4063c-75.91444,104.48727 -185.39493,128.23169 -302.44145,166.92939c-248.20554,82.06122 -507.65103,126.70802 -764.9398,172.99538c-250.9569,45.14824 -496.39081,117.38972 -746.49067,167.06658c-511.95434,101.68854 -575.99368,75.01595 -1133.11888,140.89947c-173.76319,20.54858 -614.87263,38.25449 -753.56727,176.06673c-4.55455,4.52558 10.38884,7.54793 15.58326,11.3219c53.58325,38.93051 107.16651,77.86103 160.74976,116.79154c43.27299,31.43967 86.54599,62.87934 129.81898,94.31901c288.41822,209.5481 485.25985,285.24868 849.82859,173.12902c143.83497,-44.23508 264.08532,-194.21354 347.35926,-308.83029c236.50799,-325.52531 322.07952,-670.92562 346.89183,-1064.60012c0.11331,-1.79776 9.05714,-507.89287 9.00028,-508.12057c-44.654,-178.80353 -113.97736,-352.08781 -197.20699,-516.51868c-24.28257,-47.97335 -77.71806,-74.47248 -119.23089,-108.64513c-469.9624,-386.86501 -999.29622,118.65695 -1379.70527,392.0874c-70.05841,50.35659 -136.31504,106.32997 -198.33941,166.3045c-116.788,112.92828 -451.73403,460.23279 -284.81356,623.86484c260.26502,255.13766 620.82112,147.6667 956.25961,100.80228c419.81888,-58.65327 1117.47423,-390.46717 1299.60468,-789.15316c35.9858,-78.77341 -5.03394,-331.30645 -23.47263,-389.75672c-136.35979,-432.25795 -358.15787,-796.20636 -603.54474,-1167.2576c-98.70029,-149.24541 -290.81865,-422.93792 -94.12753,-584.47953c78.55597,-64.51769 343.93653,29.02487 409.12959,54.33221c192.54015,74.7423 381.99103,157.76698 568.22368,247.07278c266.07996,127.5957 478.18761,275.02115 726.85582,434.28961c477.80421,306.02682 939.47964,597.43956 1302.53323,1038.71561c27.71378,33.68491 -30.62386,182.52081 -73.65513,189.58381c-158.07592,25.946 -455.22409,-148.57455 -576.71249,-209.02518c-613.14195,-305.08933 -1201.12778,-619.68877 -1840.90261,-866.87096c-259.55488,-100.28113 -704.07866,-268.18558 -993.43445,-198.70001c-45.72525,10.98041 -79.83643,55.33208 -103.28987,96.09118c-126.73344,220.2467 -130.10803,277.06987 3.36881,542.34644c83.83849,166.62358 259.96336,326.89018 422.71884,417.0367c137.03175,75.89873 415.94979,-215.74109 461.07109,-319.4793c9.09202,-20.90342 -11.62555,-44.2127 -20.19775,-65.3346c-26.32824,-64.87277 -50.92219,-130.84058 -84.37851,-192.34121c-50.26292,-92.39514 -104.52816,-183.02183 -166.17851,-268.24188c-67.22023,-92.91936 -185.72478,-190.29561 -270.27868,-265.64685" style="mix-blend-mode: normal"/></g><g stroke="#91ff7a" style="mix-blend-mode: xor"><path d="M2846.46269,116.0603c0,138.3786 -79.94459,227.90788 -157.03033,335.16357c-163.46584,227.44337 -360.237,429.53435 -554.10553,631.68915c-189.09742,197.17978 -356.34499,414.36587 -541.84753,614.93134c-379.72365,410.55746 -452.03079,427.7676 -893.45764,835.73639c-137.67773,127.24241 -508.88248,420.38742 -542.31354,627.18933c-1.09783,6.79111 13.75854,0 20.63782,0c70.96344,0 141.92688,0 212.89032,0c57.30896,0 114.61792,0 171.92688,0c381.96913,0 600.26618,-58.34738 845.6662,-385.12756c96.81879,-128.92608 106.60034,-334.65805 106.60034,-486.45172c0,-431.11223 -143.34898,-784.39695 -369.76593,-1141.2616c-1.03396,-1.62966 -312.00488,-445.94745 -312.19757,-446.10901c-151.31135,-126.86586 -320.53033,-233.41159 -496.22772,-323.52539c-51.2604,-26.29105 -114.26684,-15.60854 -171.77124,-19.086c-651.0012,-39.36792 -791.4673,732.17901 -949.00909,1208.75977c-29.01384,87.76997 -51.19499,178.01434 -67.18781,269.06158c-30.11346,171.43625 -101.72406,683.42009 146.01379,720.1355c386.27677,57.24724 631.12623,-262.97639 892.37183,-514.84772c326.96258,-315.23019 722.72657,-1042.21013 629.51752,-1502.49298c-18.41649,-90.94388 -213.01028,-284.0075 -265.80322,-323.0603c-390.42025,-288.80759 -811.87945,-464.59775 -1258.25867,-631.68915c-179.54406,-67.20803 -518.43632,-183.45542 -449.67773,-447.35046c27.46132,-105.39637 316.40452,-191.44201 388.85193,-210.56213c213.96501,-56.46907 430.46822,-103.81343 648.13751,-143.68652c310.99509,-56.9687 587.69494,-62.75875 903.54401,-81.30798c606.88904,-35.64147 1190.59409,-73.79306 1783.19275,80.06653c45.23615,11.74491 88.40123,177.49574 55.54962,210.71777c-120.68082,122.04155 -488.15781,157.90143 -631.53442,182.01233c-723.60993,121.68572 -1431.40362,219.28548 -2141.63086,407.93793c-288.13723,76.53578 -779.19336,210.94324 -986.24817,453.40118c-32.71969,38.31425 -34.35605,98.24065 -29.01672,148.34106c28.8517,270.72361 61.71212,322.10337 344.47357,467.98645c177.60605,91.63101 431.20286,119.63259 629.05151,95.27344c166.5784,-20.50915 224.67966,-448.95789 198.45978,-567.29462c-5.28335,-23.84505 -37.92089,-31.00232 -58.65326,-43.91235c-63.67634,-39.65123 -126.53901,-81.34387 -194.27032,-113.58307c-101.75577,-48.43439 -205.86706,-92.81535 -312.97485,-127.85889c-116.78458,-38.20959 -280.82942,-47.9851 -401.57501,-60.05035" style="mix-blend-mode: normal"/></g><g stroke="#7affb3" style="mix-blend-mode: xor"><path d="M2069.19856,-1032.6611c86.75936,119.41402 73.90332,246.79637 74.62826,387.68335c1.53729,298.76092 -41.5615,596.52542 -82.11544,892.52514c-39.55591,288.71516 -47.71308,580.99558 -82.04405,870.37855c-70.27548,592.36685 -121.88278,652.55285 -247.02815,1281.37191c-39.03191,196.12397 -175.57018,681.82847 -74.76078,881.24878c3.31045,6.54871 11.87296,-8.62621 17.80943,-12.93931c61.238,-44.49201 122.47601,-88.98403 183.71401,-133.47604c49.45485,-35.93105 98.9097,-71.8621 148.36455,-107.79316c329.62082,-239.48354 481.41846,-426.7004 488.30509,-862.55452c2.71701,-171.95952 -117.82995,-355.62897 -213.00017,-486.61954c-270.29484,-372.02893 -615.4973,-587.02085 -1034.6279,-753.02087c-1.914,-0.75806 -548.84116,-189.21301 -549.10873,-189.23162c-210.11555,-14.61126 -422.9444,-0.45967 -631.06145,31.93365c-60.71896,9.45088 -108.39284,58.17258 -160.19661,91.22528c-586.46498,374.18622 -223.94291,1128.06194 -61.09154,1638.10213c29.99168,93.93206 67.43102,185.71551 110.71398,274.31189c81.49909,166.82142 340.7016,653.53639 577.50684,529.89557c369.23046,-192.78271 379.75274,-622.63366 447.27902,-1003.77979c84.51267,-477.02439 -29.75751,-1352.50531 -398.77637,-1691.2677c-72.9117,-66.93355 -361.88198,-111.53344 -431.9247,-112.13446c-517.98769,-4.44478 -991.90184,108.09952 -1481.86689,243.77454c-197.07529,54.57164 -562.4066,166.73139 -668.5258,-104.10687c-42.38268,-108.1694 153.01317,-363.5816 203.544,-425.50376c149.23695,-182.87991 306.38518,-359.47701 469.22394,-530.35788c232.65594,-244.14611 467.80429,-422.62541 728.73688,-636.66067c501.36962,-411.25865 981.15881,-810.14772 1589.00817,-1048.9165c46.40032,-18.22647 187.57065,97.74521 180.05055,147.01121c-27.62518,180.9793 -322.25689,442.32203 -430.86711,553.02153c-548.14683,558.69126 -1097.74622,1086.68119 -1592.35825,1694.77093c-200.66273,246.70033 -540.15076,670.56537 -566.81493,1009.61215c-4.21359,53.57764 31.94643,106.31716 67.96551,146.20378c194.63345,215.53216 255.20402,239.26787 590.67787,187.87467c210.71538,-32.28072 447.11329,-167.11454 602.5746,-312.18066c130.89043,-122.13822 -87.59591,-528.29648 -184.41608,-613.97623c-19.50942,-17.26461 -52.16144,-2.9782 -78.14669,-1.12034c-79.80976,5.70612 -160.19726,9.14048 -238.85914,23.78517c-118.17725,22.00138 -235.84581,48.97753 -350.24591,85.89012c-124.73573,40.24751 -272.42742,134.66307 -384.18957,199.95532" style="mix-blend-mode: normal"/></g><g stroke="#7afbff" style="mix-blend-mode: xor"><path d="M678.87118,-1527.04535c149.15332,48.46285 217.65558,165.98713 306.26572,286.63809c187.90415,255.84901 336.81769,538.71772 486.8166,818.48014c146.30743,272.87747 321.83119,529.21037 473.04694,799.39878c309.53859,553.0756 302.76543,637.0402 587.90414,1255.71685c88.93263,192.96062 274.90005,695.73391 486.09619,804.19405c6.93541,3.56169 4.81851,-14.82984 7.22776,-22.24476c24.85276,-76.48894 49.70553,-152.97788 74.55829,-229.46682c20.0707,-61.77127 40.1414,-123.54254 60.2121,-185.3138c133.77295,-411.71079 147.33423,-667.43971 -118.94657,-1046.39229c-105.05698,-149.5099 -323.38239,-232.10437 -486.99533,-285.26544c-464.68038,-150.98381 -895.67684,-120.20021 -1359.624,-1.13439c-2.11866,0.54373 -589.94084,180.11946 -590.18247,180.27057c-189.7363,118.66219 -363.84186,263.74289 -522.50489,421.5612c-46.29056,46.04411 -56.84234,117.69771 -80.72971,178.46176c-270.42643,687.90338 512.00234,1109.51734 970.51744,1446.23374c84.44289,62.01171 173.94578,117.52529 266.48135,166.64987c174.23865,92.49849 701.00822,348.99159 827.34501,94.8223c196.98631,-396.30475 -62.42024,-772.36767 -242.41005,-1142.1651c-225.26669,-462.8209 -870.24807,-1144.00305 -1399.01401,-1204.73628c-104.47494,-11.99983 -380.72178,130.13122 -441.30449,173.3578c-448.02801,319.67397 -785.10903,712.3846 -1121.54144,1135.00208c-135.32091,169.98654 -379.30638,494.55426 -639.66879,328.02072c-103.98548,-66.51141 -95.5375,-408.08774 -90.77392,-492.87243c14.06868,-250.40175 38.8615,-500.34368 72.1157,-748.92591c47.51195,-355.16196 138.17668,-655.43457 228.79956,-1002.37323c174.12757,-666.62621 337.4301,-1309.14232 710.80928,-1893.99852c28.50198,-44.64513 222.2761,-33.12208 246.57966,13.92248c89.27946,172.81882 -0.76599,581.46788 -24.99097,744.45248c-122.26147,822.56981 -264.94518,1619.65651 -310.33875,2451.25463c-18.41604,337.37706 -45.52038,913.74089 143.30173,1221.83127c29.83849,48.68577 93.85791,71.43692 149.72929,83.22798c301.90767,63.71441 368.79642,46.28953 625.06705,-207.39781c160.96683,-159.34423 279.96321,-422.88042 322.99777,-644.66542c36.23288,-186.73157 -405.22842,-399.40783 -541.96204,-412.59016c-27.55205,-2.65626 -46.69691,30.01596 -67.87305,47.84129c-65.03932,54.74781 -131.99403,107.90366 -190.46432,169.61802c-87.84252,92.71623 -172.14094,189.39099 -247.42432,292.5657c-82.08495,112.49616 -150.07329,285.89063 -205.36542,411.81248" style="mix-blend-mode: normal"/></g><g stroke="#7aacff" style="mix-blend-mode: xor"><path d="M-819.22253,-1076.7957c157.92705,-51.31361 289.74902,6.72529 440.74145,54.92818c320.19027,102.21767 623.79696,251.84681 926.40013,398.13959c295.15611,142.69252 605.04242,253.02976 902.72946,390.36407c609.36529,281.1233 655.81964,357.26325 1285.11136,709.76636c196.27138,109.94309 668.47864,424.88297 916.89192,386.35039c8.15757,-1.26536 -5.10195,-15.70218 -7.65292,-23.55328c-26.31469,-80.98829 -52.62938,-161.97658 -78.94407,-242.96487c-21.25133,-65.40487 -42.50266,-130.80974 -63.75399,-196.21462c-141.64194,-435.92908 -289.18093,-663.42807 -753.12397,-822.31846c-183.04157,-62.68775 -421.46404,2.43849 -594.70128,58.72668c-492.01452,159.86521 -842.05027,454.46996 -1165.36839,845.20503c-1.47647,1.78433 -393.2477,521.44754 -393.36063,521.72736c-88.67859,219.73122 -147.52595,452.36473 -185.21776,686.29854c-10.99673,68.25111 24.55895,136.19704 41.91404,203.11447c196.47518,757.56514 1129.10456,631.76926 1731.43055,634.84077c110.92797,0.56567 222.14618,-7.58415 331.98594,-23.09424c206.82136,-29.20453 817.68671,-137.33171 767.72258,-433.68177c-77.90486,-462.07369 -534.16097,-622.76704 -918.4888,-827.51922c-481.00646,-256.25809 -1457.44263,-438.35181 -1948.18482,-161.29305c-96.96211,54.74199 -245.14007,348.41755 -270.13307,423.15001c-184.83102,552.66981 -229.169,1098.85421 -254.33852,1670.25334c-10.12377,229.82997 -17.125,659.7037 -343.79701,679.0894c-130.46871,7.74241 -335.81585,-290.1117 -384.50201,-365.70346c-143.78893,-223.2515 -278.10532,-452.78339 -404.32741,-686.41659c-180.33987,-333.80353 -289.55382,-647.4451 -427.84673,-1001.03504c-265.72329,-679.40635 -525.71421,-1331.42275 -569.86688,-2064.7908c-3.3704,-55.98181 169.7892,-166.70852 219.88648,-141.53544c184.033,92.47364 361.22669,498.56573 441.91066,653.25603c407.20531,780.70918 781.05712,1552.29936 1259.72683,2292.90268c194.19498,300.46072 529.68352,811.04625 883.17311,957.44289c55.85995,23.13423 124.85881,2.77982 180.05688,-21.89204c298.26935,-133.31735 344.7221,-189.87256 406.36005,-566.67552c38.71558,-236.67472 -23.36599,-536.48015 -124.53262,-753.24558c-85.1771,-182.50535 -595.69699,-89.93692 -721.02802,-16.13135c-25.25441,14.87195 -21.32011,54.77419 -28.36593,83.22267c-21.64019,87.37525 -45.91189,174.57887 -57.5893,263.83339c-17.5435,134.09105 -29.58746,269.36728 -29.86377,404.60081c-0.30128,147.45138 49.37342,338.29544 80.37867,480.57253" style="mix-blend-mode: normal"/></g><g stroke="#987aff" style="mix-blend-mode: xor"><path d="M-1814.06669,243.33153c103.02674,-141.80415 251.6074,-174.02873 410.45626,-226.54702c336.85037,-111.3688 688.95496,-171.96088 1038.13258,-234.77945c340.58437,-61.27261 673.67325,-159.31461 1013.09448,-226.73322c694.79517,-138.00587 781.7057,-101.80736 1537.80419,-191.22071c235.82147,-27.88736 834.47,-51.91681 1022.69844,-238.94771c6.18118,-6.14185 -14.09914,-10.24362 -21.1487,-15.36543c-72.72013,-52.83427 -145.44026,-105.66853 -218.16039,-158.5028c-58.72764,-42.66812 -117.45527,-85.33625 -176.18291,-128.00437c-391.42472,-284.38671 -658.56694,-387.12321 -1153.3388,-234.96081c-195.20461,60.03333 -358.4015,263.57552 -471.41614,419.12683c-320.97512,441.78436 -437.10792,910.54191 -470.78176,1444.81445c-0.15378,2.43981 -12.29184,689.28318 -12.21466,689.5922c60.60185,242.66194 154.68356,477.83346 267.63806,700.98964c32.95492,65.10669 105.47451,101.06979 161.81335,147.44697c637.80612,525.03108 1356.18773,-161.03444 1872.45716,-532.11861c95.07927,-68.34109 184.99898,-144.30495 269.17491,-225.69896c158.498,-153.25981 613.06761,-624.60165 386.53269,-846.67371c-353.21682,-346.25825 -842.54295,-200.4048 -1297.7809,-136.8031c-569.75419,79.60087 -1516.57217,529.91973 -1763.74921,1070.99357c-48.83788,106.90677 6.83178,449.63018 31.85571,528.95555c185.05972,586.63579 486.07139,1080.56577 819.09643,1584.13532c133.95039,202.54734 394.68245,573.98718 127.7445,793.22222c-106.61167,87.55973 -466.771,-39.39089 -555.24731,-73.73657c-261.30449,-101.43598 -518.4164,-214.11233 -771.1607,-335.31305c-361.10852,-173.16559 -648.9689,-373.24299 -986.44718,-589.39305c-648.44857,-415.32211 -1275.00808,-810.81082 -1767.72366,-1409.68547c-37.61155,-45.71523 41.56095,-247.70682 99.96053,-257.29231c214.5316,-35.21243 617.80412,201.63689 782.68124,283.67703c832.12121,414.04981 1630.10199,841.00619 2498.36783,1176.46774c352.25305,136.09582 955.53532,363.96615 1348.23247,269.6643c62.0557,-14.90199 108.34944,-75.09354 140.1791,-130.40946c171.99539,-298.90623 176.57518,-376.0234 -4.57196,-736.0416c-113.78081,-226.132 -352.80741,-443.63667 -573.68985,-565.97837c-185.97166,-103.00542 -564.50328,292.79148 -625.73934,433.57906c-12.33917,28.36893 15.77753,60.00294 27.41124,88.66839c35.73119,88.04161 69.10868,177.56936 114.51369,261.0345c68.21396,125.3934 141.85965,248.38677 225.52798,364.04255c91.22745,126.10485 252.05506,258.25833 366.80678,360.52073" style="mix-blend-mode: normal"/></g></g></g></svg>