<svg version="1.1" xmlns="http://www.w3.org/2000/svg" xmlns:xlink="http://www.w3.org/1999/xlink" width="1022" height="1022"><g fill="none" fill-rule="nonzero" stroke="none" stroke-width="1" stroke-linecap="butt" stroke-linejoin="miter" stroke-miterlimit="10" stroke-dasharray="" stroke-dashoffset="0" font-family="sans-serif" font-weight="normal" font-size="12" text-anchor="start" style="mix-blend-mode: normal"/><g fill="#00f000" fill-rule="nonzero" stroke="none" stroke-width="1" stroke-linecap="butt" stroke-linejoin="miter" stroke-miterlimit="10" stroke-dasharray="" stroke-dashoffset="0" font-family="none" font-weight="none" font-size="none" text-anchor="none" style="mix-blend-mode: normal"><g><path d="M363.40313,452c0,-18.39108 14.90892,-33.3 33.3,-33.3c18.39108,0 33.3,14.90892 33.3,33.3c0,18.39108 -14.90892,33.3 -33.3,33.3c-18.39108,0 -33.3,-14.90892 -33.3,-33.3z" visibility="hidden"/><path d="M464.40313,524c0,-18.39108 14.90892,-33.3 33.3,-33.3c18.39108,0 33.3,14.90892 33.3,33.3c0,18.39108 -14.90892,33.3 -33.3,33.3c-18.39108,0 -33.3,-14.90892 -33.3,-33.3z" visibility="hidden"/><path d="M429.40313,507c0,-18.39108 14.90892,-33.3 33.3,-33.3c18.39108,0 33.3,14.90892 33.3,33.3c0,18.39108 -14.90892,33.3 -33.3,33.3c-18.39108,0 -33.3,-14.90892 -33.3,-33.3z" visibility="hidden"/></g></g><g fill="none" fill-rule="nonzero" stroke="none" stroke-width="1" stroke-linecap="butt" stroke-linejoin="miter" stroke-miterlimit="10" stroke-dasharray="" stroke-dashoffset="0" font-family="sans-serif" font-weight="normal" font-size="12" text-anchor="start" style="mix-blend-mode: normal"/><g fill="none" fill-rule="nonzero" stroke="none" stroke-width="none" stroke-linecap="butt" stroke-linejoin="miter" stroke-miterlimit="10" stroke-dasharray="none" stroke-dashoffset="0" font-family="none" font-weight="none" font-size="none" text-anchor="none" style="mix-blend-mode: normal"><path d="M0,1022v-1022h1022v1022z" fill-opacity="0" fill="#000000" stroke="none" stroke-width="1" stroke-dasharray=""/><g fill="none" stroke="#000000" stroke-width="1.33" stroke-dasharray=""><path d="M462.70313,507c25,0 50,0 75,0" visibility="hidden"/></g><g fill="none" stroke-width="1.33" stroke-dasharray="0"><g stroke="#00f000"><path d="MNaN,NaNcNaN,NaN NaN,NaN NaN,NaN"/></g><g stroke="#00f00c"><path d="M485.09751,508.386c10.07041,-0.924 20.14082,-1.848 30.21123,-2.772"/></g><g stroke="#00f017"><path d="M492.74523,508.3802c4.97193,-0.92013 9.94386,-1.84027 14.91579,-2.7604"/></g><g stroke="#00f023"><path d="M495.33606,508.37057c3.24471,-0.91371 6.48941,-1.82743 9.73412,-2.74114"/></g><g stroke="#00f02f"><path d="M496.66202,508.35716c2.36074,-0.90477 4.72147,-1.80954 7.08221,-2.71431"/></g><g stroke="#00f03a"><path d="M497.48129,508.34002c1.81455,-0.89335 3.62911,-1.7867 5.44366,-2.68005"/></g><g stroke="#00f046"><path d="M498.04645,508.31926c1.43778,-0.87951 2.87556,-1.75901 4.31335,-2.63852"/></g><g stroke="#00f052"><path d="M498.4656,508.29497c1.15835,-0.86331 2.3167,-1.72663 3.47505,-2.58994"/></g><g stroke="#00f05d"><path d="M498.79268,508.26727c0.94029,-0.84485 1.88059,-1.68969 2.82088,-2.53454"/></g><g stroke="#00f069"><path d="M499.05757,508.2363c0.7637,-0.8242 1.52741,-1.64841 2.29111,-2.47261"/></g><g stroke="#00f074"><path d="M499.2781,508.20222c0.61668,-0.80148 1.23336,-1.60296 1.85005,-2.40444"/></g><g stroke="#00f080"><path d="M499.46557,508.16519c0.4917,-0.7768 0.9834,-1.55359 1.4751,-2.33039"/></g><g stroke="#00f08c"><path d="M499.62746,508.1254c0.38378,-0.75027 0.76756,-1.50053 1.15134,-2.2508"/></g><g stroke="#00f097"><path d="M499.76888,508.08304c0.2895,-0.72203 0.579,-1.44405 0.86849,-2.16608"/></g><g stroke="#00f0a3"><path d="M499.89347,508.03831c0.20644,-0.69221 0.41287,-1.38442 0.61931,-2.07663"/></g><g stroke="#00f0af"><path d="M500.00387,507.99145c0.13284,-0.66096 0.26567,-1.32193 0.39851,-1.98289"/></g><g stroke="#00f0ba"><path d="M500.10203,507.94266c0.0674,-0.62844 0.13479,-1.25688 0.20219,-1.88532"/></g><g stroke="#00f0c6"><path d="M500.18944,507.89219c0.00912,-0.5948 0.01824,-1.18959 0.02737,-1.78439"/></g><g stroke="#00f0d2"><path d="M500.26725,507.84028c-0.04275,-0.56019 -0.0855,-1.12038 -0.12824,-1.68057"/></g><g stroke="#00f0dd"><path d="M500.33635,507.78718c-0.08882,-0.52478 -0.17764,-1.04957 -0.26646,-1.57435"/></g><g stroke="#00f0e9"><path d="M500.39749,507.73313c-0.12958,-0.48875 -0.25915,-0.9775 -0.38873,-1.46625"/></g><g stroke="#00ebf0"><path d="M500.45126,507.67838c-0.16542,-0.45225 -0.33084,-0.90451 -0.49626,-1.35676"/></g><g stroke="#00e0f0"><path d="M500.49815,507.6232c-0.19669,-0.41546 -0.39337,-0.83093 -0.59006,-1.24639"/></g><g stroke="#00d4f0"><path d="M500.53861,507.56782c-0.22366,-0.37855 -0.44732,-0.7571 -0.67097,-1.13564"/></g><g stroke="#00c8f0"><path d="M500.57301,507.51251c-0.24659,-0.34167 -0.49318,-0.68335 -0.73977,-1.02502"/></g><g stroke="#00f000"><path d="M500.20313,507v0"/></g><g stroke="#00f00c"><path d="M485.09751,505.614c10.07041,0.924 20.14082,1.848 30.21123,2.772"/></g><g stroke="#00f017"><path d="M470.37154,501.4792c19.88772,3.68054 39.77544,7.36107 59.66316,11.04161"/></g><g stroke="#00f023"><path d="M456.39958,494.66486c29.20236,8.22342 58.40472,16.44685 87.60708,24.67027"/></g><g stroke="#00f02f"><path d="M443.54546,485.28551c37.77178,14.47633 75.54355,28.95266 113.31533,43.42899"/></g><g stroke="#00f03a"><path d="M432.15736,473.49941c45.36384,22.33373 90.72769,44.66746 136.09153,67.00119"/></g><g stroke="#00f046"><path d="M422.56291,459.50663c51.76014,31.66225 103.52029,63.32449 155.28043,94.98674"/></g><g stroke="#00f052"><path d="M415.06449,443.54652c56.75909,42.30232 113.51819,84.60464 170.27728,126.90695"/></g><g stroke="#00f05d"><path d="M409.93483,425.89466c60.17886,54.07023 120.35773,108.14045 180.53659,162.21068"/></g><g stroke="#00f069"><path d="M407.41301,406.85937c61.86008,66.76042 123.72015,133.52084 185.58023,200.28127"/></g><g stroke="#00f074"><path d="M407.70077,386.7778c61.66824,80.14814 123.33648,160.29627 185.00471,240.44441"/></g><g stroke="#00f080"><path d="M410.95934,366.01161c59.49585,93.99226 118.99171,187.98452 178.48756,281.97677"/></g><g stroke="#00f08c"><path d="M417.30673,344.94235c55.26426,108.03843 110.52852,216.07686 165.79278,324.11529"/></g><g stroke="#00f097"><path d="M426.8155,323.96649c48.92508,122.02234 97.85016,244.04468 146.77525,366.06702"/></g><g stroke="#00f0a3"><path d="M439.51112,303.49028c40.46134,135.67315 80.92267,271.3463 121.38401,407.01944"/></g><g stroke="#00f0af"><path d="M455.37087,283.92442c29.88817,148.71705 59.77634,297.4341 89.66451,446.15116"/></g><g stroke="#00f0ba"><path d="M474.32335,265.67863c17.25319,160.88091 34.50637,321.76182 51.75956,482.64273"/></g><g stroke="#00f0c6"><path d="M496.24852,249.15616c2.6364,171.89589 5.2728,343.79179 7.9092,515.68768"/></g><g stroke="#00f0d2"><path d="M520.97846,234.74829c-13.85022,181.50114 -27.70044,363.00228 -41.55066,544.50342"/></g><g stroke="#00f0dd"><path d="M548.29854,222.82899c-32.06361,189.44734 -64.12722,378.89468 -96.19084,568.34202"/></g><g stroke="#00f0e9"><path d="M577.94939,213.74964c-51.83085,195.50024 -103.66169,391.00048 -155.49254,586.50072"/></g><g stroke="#00ebf0"><path d="M609.62925,207.83398c-72.95075,199.44401 -145.9015,398.88802 -218.85225,598.33204"/></g><g stroke="#00e0f0"><path d="M642.99697,205.37336c-95.19589,201.08443 -190.39179,402.16885 -285.58768,603.25328"/></g><g stroke="#00d4f0"><path d="M677.67549,206.62224c-118.31491,200.25184 -236.62982,400.50368 -354.94474,600.75552"/></g><g stroke="#00c8f0"><path d="M713.25586,211.79413c-142.03515,196.80391 -284.07031,393.60782 -426.10546,590.41174"/></g><g stroke="#00bdf0"><path d="M749.30157,221.05793c-166.06563,190.62804 -332.13126,381.25609 -498.19689,571.88413"/></g><g stroke="#00b1f0"><path d="M785.35346,234.53473c-190.10022,181.64351 -380.20044,363.28703 -570.30067,544.93054"/></g><g stroke="#00a5f0"><path d="M820.93479,252.29514c-213.82111,169.80324 -427.64222,339.60648 -641.46334,509.40972"/></g><g stroke="#009af0"><path d="M855.55677,274.35716c-236.90243,155.09522 -473.80486,310.19045 -710.7073,465.28567"/></g><g stroke="#008ef0"><path d="M888.7242,300.68467c-259.01405,137.54356 -518.0281,275.08711 -777.04215,412.63067"/></g><g stroke="#0083f0"><path d="M919.94133,331.18642c-279.82547,117.20905 -559.65095,234.41811 -839.47642,351.62716"/></g><g stroke="#0077f0"><path d="M948.71789,365.71579c-299.00984,94.18947 -598.01968,188.37894 -897.02952,282.56841"/></g><g stroke="#006bf0"><path d="M974.57502,404.07107c-316.24793,68.61928 -632.49586,137.23857 -948.74379,205.85785"/></g><g stroke="#0060f0"><path d="M997.05135,445.99642c-331.23215,40.66906 -662.46431,81.33811 -993.69646,122.00717"/></g><g stroke="#0054f0"><path d="M1015.70888,491.18345c-343.6705,10.54437 -687.341,21.08873 -1031.0115,31.6331"/></g><g stroke="#0048f0"><path d="M1030.1387,539.2735c-353.29038,-21.51567 -706.58076,-43.03133 -1059.87114,-64.547"/></g><g stroke="#003df0"><path d="M1039.96658,589.86042c-359.8423,-55.24028 -719.6846,-110.48056 -1079.52691,-165.72084"/></g><g stroke="#0031f0"><path d="M1044.8582,642.49403c-363.10338,-90.32935 -726.20676,-180.65871 -1089.31015,-270.98806"/></g><g stroke="#0025f0"><path d="M1044.52405,696.68411c-362.88062,-126.45607 -725.76123,-252.91215 -1088.64185,-379.36822"/></g><g stroke="#001af0"><path d="M1038.72394,751.90491c-359.01387,-163.26994 -718.02775,-326.53988 -1077.04162,-489.80981"/></g><g stroke="#000ef0"><path d="M1027.27103,807.60015c-351.37861,-200.4001 -702.75721,-400.8002 -1054.13582,-601.2003"/></g><g stroke="#0002f0"><path d="M1010.03539,863.18849c-339.88818,-237.45899 -679.77636,-474.91799 -1019.66454,-712.37698"/></g><g stroke="#0900f0"><path d="M986.94695,918.06932c-324.49588,-274.04621 -648.99176,-548.09243 -973.48764,-822.13864"/></g><g stroke="#1500f0"><path d="M957.99786,971.62896c-305.19649,-309.75264 -610.39299,-619.50527 -915.58948,-929.25791"/></g><g stroke="#2100f0"><path d="M923.24431,1023.24703c-282.02746,-344.16469 -564.05492,-688.32938 -846.08238,-1032.49407"/></g><g stroke="#2c00f0"><path d="M882.80754,1072.30316c-255.06961,-376.86878 -510.13922,-753.73755 -765.20882,-1130.60633"/></g><g stroke="#3800f0"><path d="M836.87426,1118.18369c-224.44743,-407.4558 -448.89485,-814.91159 -673.34228,-1222.36739"/></g><g stroke="#4400f0"><path d="M785.69641,1160.28853c-190.32886,-435.52569 -380.65771,-871.05138 -570.98657,-1306.57706"/></g><g stroke="#4f00f0"><path d="M729.59008,1198.03799c-152.92464,-460.692 -305.84927,-921.38399 -458.77391,-1382.07599"/></g><g stroke="#5b00f0"><path d="M668.93386,1230.87954c-112.48716,-482.58636 -224.97432,-965.17271 -337.46148,-1447.75907"/></g><g stroke="#6600f0"><path d="M604.16642,1258.29438c-69.30886,-500.86292 -138.61773,-1001.72584 -207.92659,-1502.58876"/></g><g stroke="#7200f0"><path d="M535.78339,1279.80387c-23.72017,-515.20258 -47.44035,-1030.40516 -71.16052,-1545.60774"/></g><g stroke="#7e00f0"><path d="M464.33363,1294.97558c23.913,-525.31706 47.826,-1050.63411 71.739,-1575.95117"/></g><g stroke="#8900f0"><path d="M390.41482,1303.42905c73.1922,-530.9527 146.38441,-1061.9054 219.57661,-1592.85811"/></g><g stroke="#9500f0"><path d="M314.66847,1304.84107c123.68977,-531.89405 247.37954,-1063.78809 371.06931,-1595.68214"/></g><g stroke="#a100f0"><path d="M237.77435,1298.95049c174.95252,-527.967 349.90503,-1055.93399 524.85755,-1583.90099"/></g><g stroke="#ac00f0"><path d="M160.44441,1285.56254c226.50581,-519.04169 453.01162,-1038.08339 679.51743,-1557.12508"/></g><g stroke="#b800f0"><path d="M83.41627,1264.55244c277.85791,-505.03496 555.71581,-1010.06992 833.57372,-1515.10489"/></g><g stroke="#c400f0"><path d="M7.44627,1235.86847c328.50457,-485.91231 657.00914,-971.82462 985.51372,-1457.73694"/></g><g stroke="#cf00f0"><path d="M-66.69778,1199.53427c377.93393,-461.68951 755.86787,-923.37902 1133.8018,-1385.06853"/></g><g stroke="#db00f0"><path d="M-138.24411,1155.65048c425.63149,-432.43365 851.26298,-864.8673 1276.89448,-1297.30095"/></g><g stroke="#e700f0"><path d="M-206.42479,1104.39559c471.08527,-398.26373 942.17055,-796.52745 1413.25582,-1194.79118"/></g><g stroke="#f000ee"><path d="M-270.48346,1046.02603c513.79106,-359.35068 1027.58212,-718.70137 1541.37318,-1078.05205"/></g><g stroke="#f000e2"><path d="M-329.68332,980.87544c553.25763,-315.91696 1106.51527,-631.83392 1659.7729,-947.75089"/></g><g stroke="#f000d6"><path d="M-383.31491,909.35323c589.01202,-268.23548 1178.02405,-536.47097 1767.03607,-804.70645"/></g><g stroke="#f000cb"><path d="M-430.70384,831.94221c620.60464,-216.62814 1241.20929,-433.25628 1861.81393,-649.88442"/></g><g stroke="#f000bf"><path d="M-471.21836,749.19559c647.61432,-161.46373 1295.22865,-322.92745 1942.84297,-484.39118"/></g><g stroke="#f000b3"><path d="M-504.27657,661.7331c669.65313,-103.1554 1339.30626,-206.3108 2008.95939,-309.46621"/></g><g stroke="#f000a8"><path d="M-529.35335,570.23644c686.37098,-42.15763 1372.74196,-84.31525 2059.11294,-126.47288"/></g><g stroke="#f0009c"><path d="M-545.98681,475.44396c697.45996,21.03736 1394.91991,42.07472 2092.37987,63.11208"/></g><g stroke="#f00091"><path d="M-553.78429,378.14474c702.65828,85.90351 1405.31656,171.80701 2107.97483,257.71052"/></g><g stroke="#f00085"><path d="M-552.42775,279.17201c701.75391,151.88533 1403.50783,303.77065 2105.26174,455.65598"/></g><g stroke="#f00079"><path d="M-541.67852,179.39602c694.58776,218.40265 1389.17553,436.80531 2083.76329,655.20796"/></g><g stroke="#f0006e"><path d="M-521.38146,79.7164c681.05639,284.85573 1362.11277,569.71146 2043.16916,854.5672"/></g><g stroke="#f00062"><path d="M-491.46822,-18.94589c661.11423,350.63059 1322.22845,701.26118 1983.34268,1051.89178"/></g><g stroke="#f00056"><path d="M-451.95986,-115.65702c634.77533,415.10468 1269.55065,830.20936 1904.32598,1245.31403"/></g><g stroke="#f0004b"><path d="M-402.96861,-209.47899c602.11449,477.65266 1204.22898,955.30531 1806.34347,1432.95797"/></g><g stroke="#f0003f"><path d="M-344.69868,-299.47856c563.26787,537.65237 1126.53574,1075.30474 1689.8036,1612.95711"/></g><g stroke="#f00033"><path d="M-277.44634,-384.7363c518.43297,594.49087 1036.86595,1188.98174 1555.29892,1783.4726"/></g><g stroke="#f00028"><path d="M-201.59901,-464.35569c467.86809,647.57046 935.73618,1295.14092 1403.60428,1942.71138"/></g><g stroke="#f0001c"><path d="M-117.63352,-537.47212c411.89109,696.31474 823.78219,1392.62949 1235.67328,2088.94423"/></g><g stroke="#f00010"><path d="M-26.11337,-603.2618c350.87767,740.17453 701.75533,1480.34907 1052.633,2220.5236"/></g><g stroke="#f00005"><path d="M72.31473,-660.95045c285.25893,778.63363 570.51786,1557.26727 855.77678,2335.9009"/></g><g stroke="#f00700"><path d="M176.92537,-709.82161c215.5185,811.21441 431.03701,1622.42881 646.55551,2433.64322"/></g><g stroke="#f01300"><path d="M286.9196,-749.22461c142.18902,837.48308 284.37803,1674.96615 426.56705,2512.44923"/></g><g stroke="#f01e00"><path d="M401.43105,-778.58206c65.84805,857.05471 131.6961,1714.10941 197.54415,2571.16412"/></g><g stroke="#f02a00"><path d="M519.53267,-797.39669c-12.88637,869.59779 -25.77273,1739.19559 -38.6591,2608.79338"/></g><g stroke="#f03600"><path d="M640.24428,-805.25769c-93.36077,874.83846 -186.72154,1749.67692 -280.08231,2624.51538"/></g><g stroke="#f04100"><path d="M762.54065,-801.84621c-174.89169,872.56414 -349.78337,1745.12828 -524.67506,2617.69242"/></g><g stroke="#f04d00"><path d="M885.36025,-786.94018c-256.77142,862.62679 -513.54284,1725.25357 -770.31426,2587.88036"/></g><g stroke="#f05800"><path d="M1007.61443,-760.41823c-338.2742,844.94549 -676.54841,1689.89098 -1014.82261,2534.83647"/></g><g stroke="#f06400"><path d="M1128.19704,-722.26282c-418.66261,819.50855 -837.32522,1639.01709 -1255.98782,2458.52564"/></g><g stroke="#f07000"><path d="M1245.99438,-672.56231c-497.19417,786.37488 -994.38834,1572.74975 -1491.58251,2359.12463"/></g><g stroke="#f07b00"><path d="M1359.89541,-611.51224c-573.12819,745.67483 -1146.25638,1491.34966 -1719.38458,2237.02448"/></g><g stroke="#f08700"><path d="M1468.80209,-539.41546c-645.73265,697.61031 -1291.46529,1395.22062 -1937.19794,2092.83093"/></g><g stroke="#f09300"><path d="M1571.63977,-456.68139c-714.2911,642.45426 -1428.58219,1284.90852 -2142.87329,1927.36278"/></g><g stroke="#f09e00"><path d="M1667.36754,-363.82418c-778.10961,580.54946 -1556.21922,1161.09891 -2334.32883,1741.64837"/></g><g stroke="#f0aa00"><path d="M1754.98848,-261.45993c-836.52357,512.30662 -1673.04715,1024.61323 -2509.57072,1536.91985"/></g><g stroke="#f0b600"><path d="M1833.55963,-150.30283c-888.90434,438.20189 -1777.80867,876.40377 -2666.71301,1314.60566"/></g><g stroke="#f0c100"><path d="M1902.20161,-31.16045c-934.66565,358.77363 -1869.33131,717.54726 -2803.99696,1076.3209"/></g></g></g></svg>