<svg version="1.1" xmlns="http://www.w3.org/2000/svg" xmlns:xlink="http://www.w3.org/1999/xlink" width="1022" height="1022"><g fill="none" fill-rule="nonzero" stroke="none" stroke-width="1" stroke-linecap="butt" stroke-linejoin="miter" stroke-miterlimit="10" stroke-dasharray="" stroke-dashoffset="0" font-family="sans-serif" font-weight="normal" font-size="12" text-anchor="start" style="mix-blend-mode: normal"/><g fill="#00f000" fill-rule="nonzero" stroke="none" stroke-width="1" stroke-linecap="butt" stroke-linejoin="miter" stroke-miterlimit="10" stroke-dasharray="" stroke-dashoffset="0" font-family="none" font-weight="none" font-size="none" text-anchor="none" style="mix-blend-mode: normal"><g><path d="M462.46953,487.50391c0,-18.39108 14.90892,-33.3 33.3,-33.3c18.39108,0 33.3,14.90892 33.3,33.3c0,18.39108 -14.90892,33.3 -33.3,33.3c-18.39108,0 -33.3,-14.90892 -33.3,-33.3z" visibility="hidden"/><path d="M462.05547,479.02734c0,-18.39108 14.90892,-33.3 33.3,-33.3c18.39108,0 33.3,14.90892 33.3,33.3c0,18.39108 -14.90892,33.3 -33.3,33.3c-18.39108,0 -33.3,-14.90892 -33.3,-33.3z" visibility="hidden"/><path d="M426.84063,459.26953c0,-18.39108 14.90892,-33.3 33.3,-33.3c18.39108,0 33.3,14.90892 33.3,33.3c0,18.39108 -14.90892,33.3 -33.3,33.3c-18.39108,0 -33.3,-14.90892 -33.3,-33.3z" visibility="hidden"/><path d="M496.05938,483.15625c0,-18.39108 14.90892,-33.3 33.3,-33.3c18.39108,0 33.3,14.90892 33.3,33.3c0,18.39108 -14.90892,33.3 -33.3,33.3c-18.39108,0 -33.3,-14.90892 -33.3,-33.3z" visibility="hidden"/><path d="M457.64531,489.30859c0,-18.39108 14.90892,-33.3 33.3,-33.3c18.39108,0 33.3,14.90892 33.3,33.3c0,18.39108 -14.90892,33.3 -33.3,33.3c-18.39108,0 -33.3,-14.90892 -33.3,-33.3z" visibility="hidden"/><path d="M509.59844,498.64844c0,-18.39108 14.90892,-33.3 33.3,-33.3c18.39108,0 33.3,14.90892 33.3,33.3c0,18.39108 -14.90892,33.3 -33.3,33.3c-18.39108,0 -33.3,-14.90892 -33.3,-33.3z" visibility="hidden"/></g></g><g fill="none" fill-rule="nonzero" stroke="none" stroke-width="1" stroke-linecap="butt" stroke-linejoin="miter" stroke-miterlimit="10" stroke-dasharray="" stroke-dashoffset="0" font-family="sans-serif" font-weight="normal" font-size="12" text-anchor="start" style="mix-blend-mode: normal"/><g fill="none" fill-rule="nonzero" stroke="none" stroke-width="1" stroke-linecap="butt" stroke-linejoin="miter" stroke-miterlimit="10" stroke-dasharray="" stroke-dashoffset="0" font-family="sans-serif" font-weight="normal" font-size="12" text-anchor="start" style="mix-blend-mode: normal"/><g fill="none" fill-rule="nonzero" stroke="none" stroke-width="1" stroke-linecap="butt" stroke-linejoin="miter" stroke-miterlimit="10" stroke-dasharray="" stroke-dashoffset="0" font-family="sans-serif" font-weight="normal" font-size="12" text-anchor="start" style="mix-blend-mode: normal"/><g fill="none" fill-rule="nonzero" stroke="none" stroke-width="1" stroke-linecap="butt" stroke-linejoin="miter" stroke-miterlimit="10" stroke-dasharray="" stroke-dashoffset="0" font-family="sans-serif" font-weight="normal" font-size="12" text-anchor="start" style="mix-blend-mode: normal"/><g fill="none" fill-rule="nonzero" stroke="none" stroke-width="none" stroke-linecap="butt" stroke-linejoin="miter" stroke-miterlimit="10" stroke-dasharray="none" stroke-dashoffset="0" font-family="none" font-weight="none" font-size="none" text-anchor="none" style="mix-blend-mode: normal"><path d="M0,1022v-1022h1022v1022z" fill-opacity="0" fill="#000000" stroke="none" stroke-width="1" stroke-dasharray=""/><g fill="none" stroke="#000000" stroke-width="1.33" stroke-dasharray=""><path d="M542.89844,498.64844c-1.18764,-1.78146 -21.28859,-0.84375 -24.98828,-0.84375c-5.37997,0 -17.30679,-2.4519 -22.1875,1.01953c-4.2257,3.00556 -2.05469,14.95244 -2.05469,19.17969c0,5.52888 0.04662,9.48375 2.71094,14.48438c11.13119,20.89202 46.17081,7.52415 39.88281,-11.30078c-1.48061,-4.43265 -15.39532,-3.30953 -18.07031,-0.71875c-7.68178,7.43994 9.03067,5.4836 3.66406,1.89844" visibility="hidden"/></g><g fill="none" stroke-width="1.33" stroke-dasharray="0"><g stroke="#00f000"><path d="MNaN,NaNcNaN,NaN NaN,NaN NaN,NaNcNaN,NaN NaN,NaN NaN,NaNcNaN,NaN NaN,NaN NaN,NaNcNaN,NaN NaN,NaN NaN,NaNcNaN,NaN NaN,NaN NaN,NaNcNaN,NaN NaN,NaN NaN,NaNcNaN,NaN NaN,NaN NaN,NaN"/></g><g stroke="#00f00c"><path d="M527.24225,510.49093c-0.54424,-0.67371 -8.60658,0.44695 -10.09688,0.58369c-2.16714,0.19884 -7.06208,-0.34801 -8.89981,1.23073c-1.5911,1.36687 -0.27502,6.09903 -0.11878,7.80183c0.20435,2.22713 0.3693,3.81849 1.62735,5.73435c5.25599,8.00424 18.87645,1.32438 15.64778,-6.02621c-0.76025,-1.73082 -6.32381,-0.76412 -7.30558,0.37835c-2.81937,3.28085 3.84038,1.87511 1.54611,0.6293"/></g><g stroke="#00f017"><path d="M522.16869,514.85321c-0.30176,-0.31058 -4.26487,0.61573 -5.00065,0.7519c-1.06995,0.19801 -3.53217,0.14936 -4.37506,1.01938c-0.72978,0.75327 0.1417,3.04932 0.29728,3.89003c0.20349,1.09957 0.35832,1.88439 1.07225,2.78084c2.98268,3.74526 9.45925,-0.20295 7.51585,-3.71537c-0.45761,-0.82706 -3.18359,-0.09156 -3.62023,0.52214c-1.2539,1.76237 1.99782,0.75819 0.79857,0.2427"/></g><g stroke="#00f023"><path d="M520.45427,516.33613c-0.21925,-0.18781 -2.79385,0.66856 -3.27402,0.80378c-0.69826,0.19663 -2.33583,0.31431 -2.84241,0.94324c-0.4386,0.54453 0.27982,2.01575 0.43432,2.56439c0.20207,0.71758 0.35267,1.22918 0.88123,1.78082c2.20827,2.30471 6.26743,-0.71093 4.76329,-2.92437c-0.35417,-0.52119 -2.11909,0.13314 -2.37158,0.56716c-0.72509,1.24637 1.37249,0.38165 0.54494,0.11248"/></g><g stroke="#00f02f"><path d="M519.58169,517.10069c-0.17662,-0.12524 -2.04081,0.69078 -2.39017,0.82467c-0.50803,0.19471 -1.72301,0.39482 -2.05826,0.89926c-0.29026,0.43674 0.34712,1.48631 0.50011,1.88549c0.20009,0.52209 0.34763,0.89386 0.78019,1.26964c1.80721,1.56997 4.63219,-0.96046 3.35713,-2.51052c-0.30023,-0.36499 -1.57355,0.24465 -1.73238,0.58611c-0.45613,0.98056 1.05122,0.19099 0.4147,0.04666"/></g><g stroke="#00f03a"><path d="M519.04759,517.57897c-0.14986,-0.08686 -1.57532,0.69948 -1.84385,0.83169c-0.39049,0.19225 -1.34378,0.44048 -1.57398,0.86685c-0.19931,0.36915 0.38518,1.1587 0.53623,1.46553c0.19757,0.4013 0.34228,0.68668 0.71435,0.95443c1.55448,1.11863 3.62004,-1.10375 2.49096,-2.24541c-0.26586,-0.26882 -1.23569,0.30992 -1.33727,0.59356c-0.2917,0.81451 0.85142,0.07531 0.33378,0.00686"/></g><g stroke="#00f046"><path d="M518.68425,517.91484c-0.13098,-0.06067 -1.25402,0.70041 -1.46679,0.83057c-0.30941,0.18927 -1.08159,0.46785 -1.24016,0.8392c-0.13729,0.32151 0.40786,0.93222 0.55658,1.17533c0.19451,0.31797 0.33632,0.54378 0.66547,0.73764c1.37516,0.80993 2.92004,-1.19158 1.89615,-2.05301c-0.24109,-0.20284 -1.00183,0.35128 -1.06453,0.59438c-0.18005,0.69813 0.71228,-0.00233 0.27751,-0.01972"/></g><g stroke="#00f052"><path d="M518.41984,518.16984c-0.11655,-0.04153 -1.01552,0.69605 -1.18694,0.82381c-0.24928,0.18578 -0.88656,0.48404 -0.99283,0.81343c-0.092,0.28518 0.42114,0.76376 0.56712,0.95962c0.19093,0.25618 0.32966,0.43781 0.62579,0.5775c1.23721,0.58362 2.3991,-1.24577 1.45768,-1.90086c-0.22167,-0.15425 -0.82761,0.37829 -0.86209,0.59071c-0.09901,0.60999 0.60779,-0.05777 0.23533,-0.03857"/></g><g stroke="#00f05d"><path d="M518.2185,518.37463c-0.10487,-0.02687 -0.82922,0.68769 -0.96837,0.81272c-0.20235,0.18181 -0.7338,0.49264 -0.80006,0.78815c-0.05737,0.25585 0.42802,0.63182 0.57088,0.79082c0.18684,0.20795 0.32225,0.35513 0.59145,0.45317c1.12469,0.40962 1.99084,-1.27729 1.11817,-1.77284c-0.20548,-0.11668 -0.69089,0.39579 -0.70395,0.58363c-0.0375,0.53943 0.52497,-0.09893 0.20197,-0.05242"/></g><g stroke="#00f069"><path d="M518.0603,518.54614c-0.09501,-0.01527 -0.67814,0.67607 -0.79116,0.79804c-0.16435,0.17737 -0.60953,0.49567 -0.64418,0.76262c-0.03,0.23113 0.43019,0.52451 0.56955,0.65364c0.18228,0.1689 0.31409,0.28817 0.56034,0.3531c1.02881,0.27124 1.65849,-1.29232 0.84578,-1.66008c-0.19137,-0.0866 -0.57941,0.40645 -0.57571,0.57379c0.01062,0.48053 0.45665,-0.13021 0.17452,-0.0628"/></g><g stroke="#00f074"><path d="M517.93333,518.69445c-0.08641,-0.00587 -0.55218,0.66168 -0.64344,0.78029c-0.13271,0.17248 -0.50552,0.49436 -0.51462,0.73646c-0.00788,0.20961 0.42868,0.43471 0.5642,0.53898c0.17725,0.13638 0.30519,0.23244 0.53123,0.27038c0.94436,0.15849 1.38013,-1.2946 0.62151,-1.55737c-0.17863,-0.06187 -0.48586,0.41193 -0.46879,0.56159c0.04903,0.4298 0.39856,-0.15425 0.15125,-0.07064"/></g><g stroke="#00f080"><path d="M517.82998,518.82587c-0.07871,0.00186 -0.44492,0.64488 -0.51769,0.75984c-0.10581,0.16717 -0.41658,0.48953 -0.40471,0.70946c0.01028,0.19041 0.42419,0.35793 0.55554,0.44107c0.17179,0.10874 0.29559,0.18508 0.50337,0.20065c0.86808,0.06504 1.14188,-1.28663 0.43328,-1.4615c-0.16685,-0.04118 -0.40563,0.41327 -0.37774,0.54734c0.08009,0.38502 0.348,-0.17275 0.13105,-0.07651"/></g><g stroke="#00f08c"><path d="M517.74519,518.94455c-0.07169,0.00829 -0.35213,0.62593 -0.40892,0.73696c-0.08259,0.16146 -0.33926,0.48175 -0.31001,0.68151c0.02533,0.17296 0.41719,0.2912 0.54405,0.35609c0.16593,0.08487 0.28533,0.14419 0.4763,0.141c0.79786,-0.01334 0.93458,-1.27011 0.2731,-1.37039c-0.15576,-0.02361 -0.33566,0.41122 -0.29897,0.53127c0.10535,0.34475 0.3032,-0.18684 0.11322,-0.08082"/></g><g stroke="#00f097"><path d="M517.67545,519.05326c-0.0652,0.01367 -0.27089,0.60507 -0.31373,0.71192c-0.0623,0.15538 -0.27122,0.47145 -0.22748,0.6526c0.03787,0.15685 0.40805,0.23249 0.53014,0.28144c0.15968,0.06402 0.27444,0.10847 0.44972,0.08943c0.73228,-0.07955 0.75196,-1.24633 0.13546,-1.28272c-0.14516,-0.00857 -0.27386,0.40631 -0.23001,0.51357c0.12592,0.30801 0.26295,-0.19732 0.09726,-0.08384"/></g><g stroke="#00f0a3"><path d="M517.61823,519.15396c-0.05913,0.01817 -0.19915,0.58248 -0.2297,0.68492c-0.04442,0.14896 -0.2108,0.45895 -0.15498,0.62276c0.04833,0.14182 0.39704,0.18036 0.51409,0.21527c0.15309,0.04565 0.26297,0.07702 0.42343,0.04454c0.67038,-0.13569 0.58958,-1.21627 0.01643,-1.19761c-0.13496,0.00439 -0.21876,0.39894 -0.16912,0.4944c0.14257,0.27413 0.2264,-0.20476 0.08282,-0.08578"/></g><g stroke="#00f0af"><path d="M517.57165,519.24799c-0.05341,0.02193 -0.13542,0.55836 -0.15508,0.65617c-0.02859,0.14224 -0.15678,0.44454 -0.09094,0.59202c0.05701,0.12769 0.3844,0.13377 0.49617,0.15623c0.14618,0.02938 0.25098,0.04916 0.39735,0.00529c0.6115,-0.18328 0.44425,-1.18071 -0.08686,-1.11449c-0.12506,0.01559 -0.1693,0.38945 -0.11502,0.47393c0.15588,0.24263 0.19296,-0.20962 0.06966,-0.08679"/></g><g stroke="#00f0ba"><path d="M517.53429,519.33632c-0.04798,0.02505 -0.0786,0.53287 -0.08857,0.62587c-0.0145,0.13524 -0.10829,0.42844 -0.03418,0.56049c0.06416,0.11433 0.37033,0.09196 0.47659,0.10335c0.13898,0.0149 0.23852,0.02439 0.37141,-0.0291c0.55518,-0.22349 0.31361,-1.14034 -0.17656,-1.03302c-0.11542,0.02527 -0.1247,0.37808 -0.06678,0.45231c0.16631,0.21316 0.16219,-0.21223 0.0576,-0.08699"/></g><g stroke="#00f0c6"><path d="M517.50503,519.41963c-0.04282,0.02761 -0.02784,0.50619 -0.02919,0.59421c-0.00196,0.128 -0.06465,0.41087 0.01616,0.52825c0.06997,0.10163 0.355,0.05434 0.45557,0.05588c0.13154,0.00202 0.22565,0.00235 0.3456,-0.05921c0.50112,-0.25721 0.19586,-1.09574 -0.25431,-0.95301c-0.106,0.03361 -0.08436,0.36507 -0.02369,0.42966c0.17421,0.18548 0.13376,-0.21286 0.0465,-0.08648"/></g><g stroke="#00f0d2"><path d="M517.48296,519.49843c-0.03789,0.02966 0.0175,0.47847 0.02382,0.56137c0.0092,0.12055 -0.02535,0.392 0.06078,0.49542c0.07457,0.08955 0.33856,0.02047 0.43328,0.01325c0.12389,-0.00945 0.21243,-0.01726 0.31992,-0.08551c0.44911,-0.28515 0.08965,-1.04744 -0.32142,-0.87435c-0.09679,0.04076 -0.04783,0.35063 0.01479,0.40614c0.17985,0.15941 0.10743,-0.21173 0.03627,-0.08535"/></g><g stroke="#00f0dd"><path d="M517.46735,519.57307c-0.03318,0.03126 0.05792,0.44987 0.07107,0.52754c0.01911,0.11293 0.01002,0.372 0.10023,0.46212c0.0781,0.07803 0.32117,-0.00999 0.40991,-0.02501c0.11606,-0.01964 0.19891,-0.03467 0.29442,-0.10837c0.39901,-0.30788 -0.00609,-0.99592 -0.37891,-0.79705c-0.08779,0.04683 -0.01478,0.33493 0.04911,0.38187c0.18347,0.13482 0.08302,-0.20905 0.02683,-0.08366"/></g><g stroke="#00f0e9"><path d="M517.45757,519.6438c-0.02867,0.03245 0.09385,0.42057 0.11302,0.49289c0.02788,0.10518 0.04177,0.35106 0.13493,0.42848c0.08066,0.06703 0.30297,-0.03733 0.38561,-0.05924c0.10809,-0.02866 0.18517,-0.05007 0.26912,-0.12807c0.35075,-0.3259 -0.09221,-0.94164 -0.42765,-0.72114c-0.07898,0.05192 0.01509,0.31813 0.07961,0.357c0.18527,0.11162 0.0604,-0.20497 0.01812,-0.08147"/></g><g stroke="#00ebf0"><path d="M517.45308,519.71078c-0.02437,0.03327 0.1256,0.3907 0.15008,0.45762c0.0356,0.09732 0.07016,0.32931 0.16525,0.39463c0.08233,0.05656 0.28409,-0.06177 0.36056,-0.08974c0.10002,-0.03658 0.17125,-0.0636 0.24409,-0.14488c0.30429,-0.3396 -0.16939,-0.88502 -0.46833,-0.64671c-0.07039,0.05611 0.042,0.3004 0.10657,0.33165c0.18542,0.08974 0.03944,-0.19965 0.0101,-0.07885"/></g><g stroke="#00e0f0"><path d="M517.4534,519.77414c-0.02026,0.03375 0.15346,0.36042 0.18257,0.42191c0.04233,0.08941 0.09541,0.3069 0.1915,0.3607c0.08319,0.04658 0.26465,-0.08349 0.3349,-0.11675c0.09188,-0.0435 0.15724,-0.07539 0.21938,-0.15901c0.25962,-0.34935 -0.23821,-0.82649 -0.50158,-0.57389c-0.06202,0.05948 0.06612,0.28189 0.13022,0.30596c0.18408,0.06913 0.02008,-0.19322 0.00272,-0.07583"/></g><g stroke="#00d4f0"><path d="M517.4581,519.83396c-0.01635,0.03392 0.17768,0.3299 0.21078,0.38592c0.04813,0.08146 0.11771,0.28399 0.21393,0.32684c0.08331,0.0371 0.24479,-0.10266 0.3088,-0.14048c0.08372,-0.04946 0.14319,-0.08555 0.19507,-0.17063c0.21676,-0.35545 -0.29913,-0.76643 -0.52792,-0.5028c-0.05387,0.06208 0.08762,0.26272 0.15078,0.28005c0.18138,0.04976 0.00224,-0.1858 -0.00403,-0.07246"/></g><g stroke="#00c8f0"><path d="M517.46678,519.89028c-0.01263,0.0338 0.19845,0.29927 0.23494,0.34984c0.05307,0.07353 0.1372,0.26072 0.23278,0.29318c0.08276,0.02811 0.22462,-0.1194 0.28239,-0.1611c0.07556,-0.05453 0.12915,-0.09418 0.17122,-0.17992c0.17574,-0.3582 -0.35258,-0.70523 -0.54783,-0.43361c-0.04598,0.06396 0.10662,0.24305 0.16841,0.25406c0.17745,0.0316 -0.01413,-0.17751 -0.01019,-0.0688"/></g><g stroke="#00f000"><path d="M518.00441,520.01971v0v0v0v0v0v0v0"/></g><g stroke="#00f00c"><path d="M528.82201,512.33109c-0.41256,-0.7615 -8.54421,-1.1267 -10.03451,-1.26344c-2.16714,-0.19884 -6.88084,-1.62732 -8.97517,-0.40937c-1.81327,1.05451 -1.3803,5.94715 -1.53654,7.64995c-0.20435,2.22713 -0.33174,3.82193 0.55667,5.93474c3.71166,8.82706 18.32027,4.73732 16.48313,-3.07807c-0.43259,-1.84027 -6.07917,-1.90215 -7.25245,-0.9574c-3.36933,2.71301 3.43503,2.54266 1.40578,0.90015"/></g><g stroke="#00f017"><path d="M540.95414,506.68361c-0.68251,-1.59202 -16.81104,-3.80535 -19.75418,-4.35002c-4.27981,-0.79205 -13.40673,-4.49844 -17.80045,-2.45543c-3.80407,1.76883 -3.83584,11.5923 -4.45818,14.95512c-0.81397,4.39828 -1.35912,7.55127 0.02416,11.92156c5.77921,18.25853 35.62157,12.78286 33.39085,-3.11827c-0.52526,-3.74419 -11.75988,-4.89928 -14.26928,-3.23211c-7.20624,4.78762 6.37667,5.69176 2.6353,2.04965"/></g><g stroke="#00f023"><path d="M554.11279,503.24461c-0.80129,-2.47158 -24.58954,-7.98818 -28.91113,-9.20515c-6.28431,-1.76967 -19.40945,-8.5569 -26.25246,-6.10738c-5.92466,2.12078 -7.31848,16.79 -8.70898,21.72782c-1.81865,6.45826 -3.0651,11.09325 -1.59782,17.81085c6.13012,28.06531 51.45689,23.9762 50.30414,-0.08145c-0.27144,-5.66478 -16.89455,-8.92994 -20.87141,-6.78356c-11.42031,6.16373 8.74492,9.37588 3.6555,3.4228"/></g><g stroke="#00f02f"><path d="M567.99118,502.14544c-0.76281,-3.37927 -31.67573,-13.60202 -37.2655,-15.74434c-8.12844,-3.11529 -24.72855,-13.72606 -34.11282,-11.30736c-8.12487,2.0941 -11.76262,21.40143 -14.21043,27.78826c-3.20152,8.35343 -5.42115,14.35572 -4.29135,23.4538c4.7202,38.01069 65.40126,38.10337 66.80154,6.02024c0.32972,-7.55451 -21.34394,-13.91499 -26.88572,-11.54961c-15.91429,6.79264 10.46888,13.51425 4.43663,4.98998"/></g><g stroke="#00f03a"><path d="M582.26797,503.47945c-0.56357,-4.29354 -37.87552,-20.54917 -44.58882,-23.85429c-9.76224,-4.80619 -29.2137,-19.91012 -41.17121,-17.97119c-10.35278,1.67872 -17.08609,25.29645 -20.8625,32.96702c-4.93922,10.03246 -8.3877,17.25042 -8.02046,28.70449c1.53428,47.85373 77.05772,54.89963 82.46505,15.1234c1.27325,-9.36598 -24.97906,-19.75872 -32.14746,-17.44731c-20.58546,6.63767 11.48787,18.01782 4.95267,6.7181"/></g><g stroke="#00f046"><path d="M596.61165,507.30054c-0.2027,-5.19249 -43.00741,-28.70868 -50.66728,-33.39431c-11.13871,-6.81367 -32.72677,-26.99531 -47.22835,-25.9894c-12.55543,0.87091 -23.19115,28.35537 -28.54492,37.10749c-7.00227,11.44703 -11.91454,19.69425 -12.73157,33.42191c-3.41345,57.35249 86.06305,74.0529 96.88593,27.11397c2.54843,-11.05256 -27.68306,-26.35009 -36.50259,-24.37397c-25.327,5.67481 11.75223,22.79052 5.18174,8.57103"/></g><g stroke="#00f052"><path d="M610.68508,513.62216c0.31802,-6.05417 -46.90513,-37.93788 -55.30478,-44.19811c-12.21448,-9.1034 -35.14387,-34.85141 -52.09884,-35.2286c-14.67957,-0.32657 -29.9658,30.47075 -37.1187,40.06814c-9.35538,12.55258 -15.94153,21.61044 -18.35409,37.47196c-10.07938,66.26748 92.09297,95.20785 109.67046,41.82853c4.13892,-12.56906 -29.35293,-33.56415 -39.80999,-32.20847c-30.02949,3.8931 11.22415,27.73049 5.10642,10.51008"/></g><g stroke="#00f05d"><path d="M624.15016,522.4168c0.99413,-6.8569 -49.42004,-48.07418 -58.32578,-56.07592c-12.95041,-11.63584 -36.35713,-43.33339 -55.61379,-45.53316c-16.67237,-1.90455 -37.28522,31.54893 -46.42795,41.72457c-11.95792,13.30888 -20.39931,22.92968 -24.80129,40.72937c-18.39095,74.36495 94.86697,117.97044 120.44552,59.05618c6.0229,-13.87235 -29.90101,-41.26369 -41.94352,-40.81278c-34.58239,1.29488 9.87824,32.73148 4.71401,12.4945"/></g><g stroke="#00f069"><path d="M636.67247,533.61601c1.81854,-7.57956 -50.42338,-58.93718 -59.57792,-68.81691c-13.31221,-14.36675 -36.27638,-52.28334 -57.62339,-56.72714c-18.48219,-3.84743 -45.01337,31.51149 -56.30189,41.97141c-14.76442,13.68069 -25.2102,23.59111 -31.97137,43.07952c-28.24734,81.42019 94.15257,141.91309 128.86395,78.54105c8.17338,-14.92201 -29.25638,-49.30103 -42.79388,-50.03375c-38.87555,-2.10413 7.70202,37.68428 3.99675,14.48207"/></g><g stroke="#00f074"><path d="M647.92594,547.11097c2.78165,-8.20188 -49.80818,-70.33092 -58.93433,-82.19187c-13.27092,-17.24777 -34.83056,-61.53246 -57.9991,-68.61656c-20.05926,-6.13339 -53.00476,30.29645 -66.55701,40.72393c-17.72519,13.63826 -30.28918,23.5433 -39.74868,44.4201c-39.52061,87.22072 89.76903,166.58021 134.60957,99.98535c10.55846,-15.68088 -27.36596,-57.51996 -42.27031,-59.70504c-42.80076,-6.27488 4.69621,42.47821 2.952,16.42964"/></g><g stroke="#00f080"><path d="M657.59742,562.75348c3.87136,-8.70475 -47.49107,-82.04647 -56.29573,-95.95618c-12.80343,-20.22701 -31.9689,-70.9033 -56.63569,-80.99181c-21.35644,-8.73461 -61.10635,27.85933 -76.9995,37.91949c-20.78689,13.15782 -35.545,22.74503 -48.00518,44.6627c-52.05713,91.56936 81.59039,191.49417 137.40192,123.05304c13.14176,-16.11561 -24.19547,-65.75776 -40.30207,-69.64928c-46.25323,-11.17527 0.87486,47.00257 1.58232,18.29371"/></g><g stroke="#00f08c"><path d="M665.39115,580.35749c5.07329,-9.07049 -43.41362,-93.86458 -51.59206,-109.85296c-11.8928,-23.24973 -27.6619,-80.21205 -53.45297,-93.63036c-22.32984,-11.61754 -69.15955,24.17401 -87.42777,33.51864c-23.89327,12.22199 -40.88131,21.16597 -56.60205,43.73415c-65.67935,94.28713 69.54793,216.16153 137.00051,147.37389c15.88284,-16.19721 -19.73015,-73.84739 -36.83959,-79.68038c-49.13309,-16.75056 -3.73464,51.14825 -0.1045,20.03101"/></g><g stroke="#00f097"><path d="M671.03299,599.70118c6.37091,-9.28308 -37.54358,-105.55854 -44.78389,-123.61636c-10.52861,-26.25904 -21.90198,-89.27099 -48.39723,-106.2996c-22.93952,-14.74332 -77.00229,19.23326 -97.63504,27.506c-26.98589,10.82004 -46.19792,18.78728 -65.39138,41.57777c-80.18794,95.2159 53.63184,240.07959 133.20871,172.5481c18.73771,-15.90142 -13.9752,-81.61967 -31.85552,-89.60587c-51.34682,-22.93394 -9.09181,54.80916 -2.09549,21.59915"/></g><g stroke="#00f0a3"><path d="M674.27453,620.52936c7.74572,-9.32846 -29.87562,-116.89715 -35.8634,-136.97512c-8.70723,-29.19668 -14.70395,-97.89097 -41.44236,-118.75985c-23.15004,-18.06822 -84.47119,13.04919 -107.41216,19.89079c-30.00484,8.94824 -51.39214,15.60202 -74.2181,38.15434c-95.36412,94.2209 33.8923,262.74304 125.87698,198.15128c21.65934,-15.20922 -6.956,-88.90556 -25.34536,-99.22951c-52.80861,-29.64723 -15.14336,57.88372 -4.37256,22.95713"/></g><g stroke="#00f0af"><path d="M674.89677,642.55646c9.1775,-9.19469 -20.43187,-127.64775 -24.85496,-149.65607c-6.43189,-32.00371 -6.10515,-105.88392 -32.59062,-130.76751c-22.93105,-21.54414 -91.40374,5.65336 -116.5503,10.70715c-32.88957,6.60993 -56.36006,11.61541 -82.92194,33.44296c-110.97233,91.19287 10.43966,283.65079 114.90573,223.73979c24.59829,-14.10705 1.28186,-95.53847 -17.32793,-108.35383c-53.44161,-36.80179 -21.82377,60.27637 -6.91272,24.06598"/></g><g stroke="#00f0ba"><path d="M672.71363,665.46978c10.64451,-8.87219 -9.26211,-137.57938 -11.81537,-161.38779c-3.71286,-34.62136 3.83468,-113.06542 -21.87313,-142.0782c-22.25775,-25.11918 -97.64047,-2.90331 -124.84382,0.01403c-35.57967,3.81563 -60.99798,6.84501 -91.33949,27.44159c-126.76313,86.04999 -16.55595,302.31269 100.24742,248.85635c27.50332,-12.58719 10.67291,-101.35649 -7.84549,-116.78276c-53.17919,-44.29953 -29.05594,61.89887 -9.68822,24.88927"/></g><g stroke="#00f0c6"><path d="M667.57497,688.93324c12.1238,-8.3539 3.55648,-146.4658 3.16632,-171.9043c-0.56735,-36.99177 15.03377,-119.25723 -9.34994,-152.45009c-21.11135,-28.73829 -103.02719,-12.55087 -132.09306,-12.10508c-38.01569,0.58305 -65.20377,1.32068 -99.3063,20.16743c-142.47623,78.73942 -46.86583,318.25636 81.9082,273.03593c30.32201,-10.64791 21.13229,-106.20467 3.03638,-124.3243c-51.96591,-52.03404 -36.75198,62.67168 -12.66695,25.39369"/></g><g stroke="#00f0d2"><path d="M659.36928,712.59138c13.59146,-7.63539 17.91973,-154.08866 19.96939,-180.94862c2.98055,-39.0588 27.38904,-124.28973 4.89023,-161.64709c-19.47941,-32.34391 -107.41707,-23.20091 -138.10709,-25.54284c-40.13994,-3.06305 -68.87827,-4.91561 -106.65911,11.65706c-157.84377,69.23858 -80.20471,331.03373 59.94876,295.81177c33.00149,-8.2936 32.55651,-109.93718 15.22927,-130.7931c-49.75854,-59.89183 -44.81424,62.52511 -15.81267,25.54951"/></g><g stroke="#00f0dd"><path d="M648.02591,736.07362c15.02294,-6.71502 33.69741,-160.24049 38.44243,-188.27639c6.90005,-40.76881 40.77698,-128.00436 20.73056,-169.44211c-17.35614,-35.87669 -110.67276,-34.74737 -142.7064,-40.16901c-41.89729,-7.09104 -71.92662,-11.81004 -113.23795,1.96634c-172.59373,57.55603 -116.23333,340.22742 34.48464,316.72146c35.48908,-5.53487 44.82448,-112.41944 28.62259,-136.01308c-46.52687,-67.75373 -53.13636,61.40049 -19.08548,25.33105"/></g><g stroke="#00f0e9"><path d="M633.51679,758.9989c16.39331,-5.59398 50.73435,-164.72765 58.40468,-193.65931c11.15393,-42.07139 55.05493,-130.25592 38.02713,-175.62019c-14.74262,-39.27627 -112.66836,-47.06758 -145.72549,-55.83165c-43.23592,-11.46267 -74.25965,-19.29745 -118.88836,-8.82994c-186.45333,43.73197 -154.56181,345.45684 5.68582,335.31314c37.733,-2.38851 57.79868,-113.53008 43.08462,-139.81988c-42.2543,-75.49629 -61.60448,59.25114 -22.44226,24.7171"/></g><g stroke="#00ebf0"><path d="M615.85774,780.98032c17.67766,-4.27636 68.85197,-167.37315 79.64779,-196.88844c15.6989,-42.92008 70.06243,-130.91472 56.61022,-179.98158c-11.64689,-42.48196 -113.29133,-60.02347 -147.01531,-72.35871c-44.1081,-16.13345 -75.79511,-27.30192 -123.46347,-20.63863c-199.15265,27.83843 -194.75368,346.38395 -26.22432,351.15155c39.68307,1.12261 71.32666,-113.16282 58.46373,-142.06329c-36.93842,-82.99334 -70.0986,56.04321 -25.83712,23.69132"/></g><g stroke="#00e0f0"><path d="M595.1092,801.63006c18.85132,-2.76913 87.85004,-168.01926 101.93787,-197.77731c20.48603,-43.2731 85.623,-129.86861 76.28588,-182.34464c-8.08405,-45.4336 -112.44419,-73.46306 -146.44555,-89.55973c-44.47089,-21.05308 -76.45888,-35.73756 -126.82609,-33.34903c-210.42811,9.97899 -236.33044,342.71849 -60.97076,363.82402c41.29138,4.96965 85.24266,-111.22816 74.58996,-142.60946c-30.59132,-90.11749 -78.49395,51.75644 -29.222,22.2425"/></g><g stroke="#00d4f0"><path d="M571.37644,820.56432c19.89028,-1.08215 107.50879,-166.53001 125.01795,-196.16484c25.46121,-43.09393 101.54598,-127.02482 96.83796,-182.54854c-4.07619,-48.07229 -110.04612,-87.22205 -143.9067,-107.22792c-44.28676,-26.16597 -76.18615,-44.50931 -128.85068,-46.83389c-220.02602,-9.71184 -278.77681,334.22281 -98.22917,372.9463c42.51297,9.1181 99.36943,-107.65492 91.27674,-141.34298c-23.23974,-96.74183 -86.66254,46.38467 -32.54715,20.36487"/></g><g stroke="#00c8f0"><path d="M544.80928,837.40827c20.77143,0.77191 127.59123,-162.79339 148.61071,-191.91797c30.56578,-42.35194 117.62867,-122.31152 118.03029,-180.45584c0.34772,-50.34119 -106.03442,-101.1257 -139.31199,-125.14242c-43.52423,-31.41183 -74.92242,-53.51401 -129.4252,-60.95069c-227.70604,-31.06957 -321.54641,320.71607 -137.62894,378.16807c43.30646,13.52804 113.52021,-102.39152 108.3229,-138.16882c-14.9251,-102.74147 -94.47464,39.93629 -35.76182,18.05828"/></g><g stroke="#00bdf0"><path d="M515.60122,851.80105c21.47293,2.77768 147.84579,-156.72334 172.42148,-184.93397c35.7371,-41.0229 133.65859,-115.67933 139.6092,-175.95475c5.15202,-52.1863 -100.36564,-114.99069 -132.59893,-143.07072c-42.15841,-36.7263 -72.62442,-62.64149 -128.45287,-75.54305c-233.2445,-53.90116 -364.06794,302.07792 -178.75674,379.17816c43.63463,18.15455 127.50091,-95.40716 125.51487,-133.01395c-5.70331,-107.99522 -101.80046,32.43447 -38.81481,15.32831"/></g><g stroke="#00b1f0"><path d="M483.98807,863.40059c21.97448,4.91716 168.00906,-148.26146 196.14158,-175.14248c40.90931,-39.08944 149.41589,-107.10238 161.3063,-168.96114c10.29469,-53.55715 -93.01667,-128.6273 -123.73077,-160.77134c-40.17143,-42.04168 -69.26096,-71.77576 -125.8537,-90.44235c-236.43764,-77.98675 -405.75176,278.2514 -221.16072,375.70941c43.46506,22.94812 141.11233,-86.69264 142.62907,-125.82882c4.3556,-112.38717 -108.51169,23.91717 -41.65512,12.18639"/></g><g stroke="#00a5f0"><path d="M450.24606,871.88833c22.25764,7.16996 187.80882,-137.37837 219.45174,-162.50718c46.01402,-36.54143 164.67594,-96.57924 182.84145,-159.42027c15.72765,-54.40759 -83.98548,-141.84158 -112.6975,-177.99659c-37.55289,-47.28768 -64.81359,-80.79636 -121.56598,-105.46957c-237.10462,-103.08169 -445.99675,249.24523 -264.35512,367.54306c42.77057,27.85521 154.15252,-76.26105 159.43442,-116.58855c15.16798,-115.80828 -114.48322,14.43712 -44.23259,8.64975"/></g><g stroke="#009af0"><path d="M414.68942,876.97374c22.30606,9.51341 206.96717,-124.07486 242.02585,-147.02707c50.98109,-33.37628 179.21198,-84.13357 203.92593,-147.30819c21.39727,-54.69641 -73.29165,-154.43765 -99.5167,-194.49547c-34.30013,-52.39223 -59.27715,-89.57968 -115.5474,-120.43721c-235.09032,-128.91901 -484.19747,215.13529 -307.82552,354.51265c41.52974,32.81874 166.41922,-64.14813 175.69503,-105.29382c26.63727,-118.15788 -119.5947,4.06144 -46.49856,4.74137"/></g><g stroke="#008ef0"><path d="M377.66747,878.3986c22.10578,11.92286 225.20381,-108.38259 263.53473,-128.73736c55.73948,-29.59919 192.79783,-69.81443 224.26577,-132.63282c27.24486,-54.388 -60.97674,-166.22002 -84.23398,-210.0167c-30.41849,-57.28234 -52.66016,-98.00045 -107.77613,-135.15139c-230.26787,-155.2121 -519.75146,176.06546 -351.03436,336.5074c39.72727,37.77875 177.71232,-50.41242 191.17297,-91.97155c38.65487,-119.34512 -123.73215,-7.12874 -48.40646,0.48985"/></g><g stroke="#0083f0"><path d="M339.5613,875.94095c21.64544,14.37185 242.23935,-90.36449 283.65011,-107.71c60.21807,-25.22323 205.21066,-53.69632 243.56518,-115.43467c33.20724,-53.45289 -47.10429,-176.99604 -66.92316,-224.31172c-25.92141,-61.88489 -44.98508,-105.93318 -98.25157,-149.41403c-222.54096,-181.65769 -552.06668,132.24751 -393.42692,313.47493c37.3544,42.67304 187.83635,-35.13513 205.63111,-76.67519c51.10112,-119.29035 -126.78955,-19.03897 -49.91248,-4.0708"/></g><g stroke="#0077f0"><path d="M300.77994,869.41872c20.91646,16.83246 257.79876,-70.11484 302.04858,-84.05374c64.34652,-20.26945 216.23378,-35.87899 261.53007,-95.78715c39.2174,-51.86832 -31.75962,-186.57824 -47.68611,-237.13781c-20.8305,-66.12762 -36.28838,-113.2537 -86.9949,-163.02516c-211.84573,-207.93911 -580.56887,83.96036 -434.43755,285.42343c34.40907,47.43787 196.60296,-18.41973 218.836,-59.48479c63.84649,-117.92632 -128.67025,-31.56223 -50.97614,-8.90142"/></g><g stroke="#006bf0"><path d="M261.75623,858.69291c19.91328,19.27555 271.61475,-47.75893 318.41559,-57.91375c68.05613,-14.76678 225.6594,-16.48683 277.87166,-73.7966c45.20523,-49.61864 -15.0494,-194.78675 -26.65223,-248.26111c-15.17552,-69.93991 -26.62048,-119.84065 -74.04943,-175.78524c-198.15244,-233.72971 -604.70898,31.54843 -473.49622,252.42315c30.89625,52.00866 203.83338,-0.39129 230.56076,-40.50675c76.75288,-115.19936 -129.28844,-44.57994 -51.56086,-13.95806"/></g><g stroke="#0060f0"><path d="M222.94224,843.67043c18.63342,21.6711 283.43114,-23.45238 332.44947,-29.47091c71.28072,-8.75193 233.2913,4.33192 292.31,-49.60185c51.09823,-46.69571 2.89908,-201.45162 -3.97765,-257.45966c-8.99418,-73.25375 -16.0455,-125.57704 -59.48062,-187.49758c-181.46666,-258.69651 -623.97026,-24.5807 -510.03511,214.60714c26.82794,56.32079 209.36076,18.80445 240.58798,-19.87318c89.67502,-111.07034 -128.57043,-57.96301 -51.63452,-19.19238"/></g><g stroke="#0054f0"><path d="M184.80451,824.30636c17.07767,23.98853 293.00623,2.61989 343.86528,1.05946c73.95743,-2.26913 238.94751,26.40629 304.57756,-23.37344c56.82232,-43.09915 21.93886,-206.41509 20.15591,-264.52633c-2.33194,-76.00456 -4.6409,-130.3517 -43.37591,-197.97069c-161.83019,-282.50394 -637.87529,-83.95947 -543.49546,172.17137c22.22332,60.31031 213.03251,39.00222 248.71248,2.25893c102.462,-105.51552 -126.45583,-71.57313 -51.16992,-24.55207"/></g><g stroke="#0048f0"><path d="M147.81886,800.60579c15.25012,26.19706 300.11595,30.24507 352.39862,33.42913c76.02762,4.63014 242.46275,49.54402 314.42265,4.68753c62.30268,-38.83663 41.90452,-209.53379 45.5426,-269.27165c4.7583,-78.13205 7.50313,-134.06079 -25.84429,-207.02072c-139.32146,-304.81774 -645.99262,-146.06423 -573.33431,125.37408c17.10862,63.91471 214.7124,60.01868 254.74413,25.70889c114.9589,-98.52725 -122.89861,-85.26413 -50.14528,-29.98138"/></g><g stroke="#003df0"><path d="M112.4652,772.62504c13.15821,28.26605 304.55699,59.18417 357.80927,67.35906c77.43758,11.88763 243.69089,73.5332 321.61281,34.35093c67.46459,-33.92391 62.61361,-210.68073 71.95419,-271.52646c12.21668,-79.58104 20.28434,-136.60915 -7.01556,-214.47375c-114.05568,-325.30886 -647.94295,-210.31984 -599.03125,74.53446c11.51708,67.07373 214.28264,81.65408 258.51036,50.27383c127.00848,-90.11449 -117.86805,-98.88349 -48.54458,-35.42168"/></g><g stroke="#0031f0"><path d="M79.22202,740.47244c10.81274,30.16536 306.14968,89.17411 359.88456,102.54175c78.13936,19.43876 242.50704,98.14421 325.938,65.35949c72.23429,-28.38492 83.86832,-209.74729 99.14211,-271.14443c19.97682,-80.30225 33.58929,-137.91168 12.96055,-220.16811c-86.18441,-343.65741 -643.405,-276.10495 -620.09505,20.03053c5.48872,69.73007 211.64572,103.69408 259.85869,75.73041c138.45295,-80.30313 -111.34947,-112.2739 -46.35795,-40.81206"/></g><g stroke="#0025f0"><path d="M48.56089,704.30842c8.22782,31.86571 304.74071,119.93006 358.44262,138.64402c78.09142,27.21318 238.80966,123.13187 327.21358,97.43104c76.53988,-22.25171 105.45732,-206.64489 126.83977,-268.00436c27.96643,-80.25298 47.29438,-137.89455 33.91562,-223.95654c-55.89482,-359.55658 -632.12067,-342.7579 -636.07008,-37.70358c-0.92995,71.83017 206.72603,125.91188 258.65903,101.83685c149.13572,-69.13614 -103.34482,-125.27498 -43.58193,-46.08996"/></g><g stroke="#001af0"><path d="M20.94088,664.34511c5.42082,33.33904 300.20554,151.14816 353.33523,175.31012c77.25931,35.13547 232.52226,148.23783 325.28317,130.26104c80.31214,-15.56426 127.1578,-201.30656 154.76511,-262.01221c36.10802,-79.39783 61.26692,-136.49635 55.66395,-225.70825c-23.40853,-372.7165 -613.89973,-409.58318 -646.54244,-98.18108c-7.68627,73.32486 199.47137,148.07044 254.80571,128.3352c158.90331,-56.67357 -93.87316,-137.72499 -40.21966,-51.19187"/></g><g stroke="#000ef0"><path d="M-3.19696,620.84532c2.41226,34.55886 292.45064,182.50842 344.45039,212.16519c75.61621,43.12583 223.595,173.19315 320.02108,163.52543c83.48543,-8.37029 148.73773,-193.68829 182.62338,-253.10289c44.31955,-77.70925 75.36648,-133.66915 78.00419,-225.31087c11.02002,-382.86797 -588.62375,-475.85841 -651.14579,-160.86668c-14.72186,74.17009 189.85414,169.92489 248.21935,154.95383c167.60706,-42.99231 -82.97082,-149.46264 -36.28104,-56.05395"/></g><g stroke="#0002f0"><path d="M-23.43506,574.12091c-0.77436,35.50057 281.4153,213.67787 331.71462,248.81891c73.14348,51.10086 212.00591,197.72104 311.33463,196.88379c85.99853,-0.72489 169.9582,-183.77012 210.11013,-241.2418c52.51532,-75.16808 89.4462,-129.37937 100.72118,-222.67217c47.1055,-389.76603 -556.24939,-540.84174 -649.56675,-225.18122c-21.97314,74.32757 177.87228,191.22511 238.84848,181.41011c175.10502,-28.18566 -70.69152,-160.32895 -31.78282,-60.61284"/></g><g stroke="#0900f0"><path d="M-39.38462,524.53066c-4.11273,36.14184 267.07327,244.31399 315.09471,284.86949c69.83108,58.97438 197.76193,221.53972 299.16604,229.98267c87.7954,7.30988 190.57587,-171.55701 236.91434,-226.42601c60.60678,-71.76399 103.35426,-123.60854 123.588,-217.72169c84.53412,-393.19335 -516.81089,-603.77965 -641.54979,-290.50707c-29.37187,73.76529 163.55004,211.71833 226.67085,207.41329c181.26369,-12.36276 -57.10623,-170.16903 -26.74854,-64.8063"/></g><g stroke="#1500f0"><path d="M-50.6907,472.47749c-7.57395,36.46285 249.43392,274.0682 294.59928,319.90782c65.67788,66.65835 180.89957,244.36546 283.49399,262.45917c88.82597,15.66549 210.34562,-157.07947 262.72169,-208.68514c68.50344,-67.49583 116.93548,-116.3539 146.36819,-210.41202c122.96629,-392.96343 -470.42173,-663.91496 -626.90165,-356.1939c-36.84583,72.45809 146.93837,231.15191 211.69445,232.66748c185.95969,4.35224 -42.30279,-178.83394 -21.20852,-68.57398"/></g><g stroke="#2100f0"><path d="M-57.03704,418.40524c-11.12676,36.44663 228.54307,302.5896 270.2797,353.52179c60.69193,74.06378 161.4853,265.91562 264.33484,293.94473c89.04685,24.26753 229.02318,-140.39389 287.21798,-188.08191c76.11385,-62.37187 130.0329,-107.62891 168.81806,-200.72002c162.03973,-388.9234 -417.27555,-720.49516 -605.49512,-421.565c-44.31946,70.38813 128.11507,249.27614 193.95824,256.87483c189.08147,21.82112 -26.38544,-186.18251 -15.19964,-71.8581"/></g><g stroke="#2c00f0"><path d="M-58.15057,362.79484c-14.73785,36.07928 204.48353,329.52873 242.23072,385.30072c54.89064,81.10166 139.61565,285.91181 241.74346,324.06898c88.42197,33.03637 246.36782,-121.5826 310.09255,-164.71231c83.34654,-56.41 142.48946,-97.46344 190.68924,-188.64766c201.37283,-380.95666 -357.6461,-772.78073 -577.2722,-485.92404c-51.71465,67.54523 107.18468,265.84701 173.53252,279.73871c190.53076,39.89273 -9.4741,-192.08306 -8.76517,-74.60418"/></g><g stroke="#3800f0"><path d="M-53.80553,306.16007c-18.37217,35.35025 177.3751,354.5414 210.59058,414.8399c48.30079,87.68394 115.41693,304.08303 215.81365,352.46377c86.9232,41.88791 262.14508,-100.75368 331.04177,-138.70549c90.11102,-49.63774 154.14975,-85.90395 211.73118,-174.22272c240.56826,-368.98509 -291.88641,-820.05359 -542.24654,-548.56207c-58.9515,63.92724 84.278,280.62908 150.51905,300.96701c190.22408,58.40432 8.29653,-196.41512 -1.9544,-76.76172"/></g><g stroke="#4400f0"><path d="M-43.82715,249.04288c-21.99321,34.25249 147.37429,377.29264 175.54065,441.74513c40.95852,93.72454 89.04462,320.16881 186.67814,378.7672c84.53083,50.73432 276.12949,-78.04045 349.77252,-110.22315c96.31882,-42.09224 164.86169,-73.01343 231.69391,-157.4991c279.21694,-352.97091 -220.42705,-861.62544 -500.50523,-608.76498c-65.94911,59.54024 59.55142,293.39821 125.05071,320.27537c188.09397,77.18299 26.77803,-199.07102 5.17766,-78.28483"/></g><g stroke="#4f00f0"><path d="M-28.09491,192.00822c-25.56344,32.78266 114.67361,397.46045 137.3046,465.63725c32.90918,99.1403 60.68253,333.92227 154.50821,402.62769c81.23402,59.48496 288.10724,-53.60072 366.00563,-79.45875c101.88449,-33.8201 174.47828,-58.87107 250.33066,-138.557c316.90207,-332.91816 -143.77353,-896.84599 -452.20976,-665.82098c-72.62649,54.39872 33.18588,303.94431 97.29094,337.39052c184.09017,96.04728 45.80952,-199.95737 12.57078,-79.13289"/></g><g stroke="#5b00f0"><path d="M-6.54525,135.63866c-29.04461,30.94126 79.50041,414.73968 96.14714,486.15659c24.20709,103.85194 30.5415,345.11317 119.51283,423.70803c77.03114,68.04721 297.87875,-27.61573 379.47926,-46.63618c106.72654,-24.87713 182.85931,-43.57195 267.40064,-117.50271c353.20346,-308.87376 -62.50282,-925.1109 -397.59629,-719.02834c-78.90338,48.5256 5.38557,312.07397 67.43277,352.05346c178.18061,114.80888 65.21901,-198.99649 20.16,-79.27106"/></g><g stroke="#6600f0"><path d="M20.82629,80.52857c-32.39818,28.73268 42.11538,428.8457 52.37225,502.96731c14.91517,107.78503 -1.14211,353.53076 81.93743,441.68934c71.93004,76.32746 305.2612,-0.28879 389.95209,-12.00822c110.7685,-15.32802 189.87304,-27.22635 282.67177,-94.46815c387.70186,-280.92808 22.74087,-945.86945 -336.97499,-767.7031c-84.70114,41.95226 -23.62365,317.61291 35.6975,364.02261c170.35224,133.2745 84.82502,-196.12757 27.8762,-78.67086"/></g><g stroke="#7200f0"><path d="M53.96347,27.27816c-35.58572,26.16531 2.81067,439.51792 6.32097,515.76163c5.10455,110.87091 -34.10825,358.98654 42.06226,456.27495c65.94822,84.23204 310.09089,28.15623 397.20648,24.14539c113.93979,-5.24584 195.39781,-9.95903 295.92334,-69.61016c419.98349,-249.2152 111.25129,-958.63175 -270.72876,-811.18685c-89.94362,34.71838 -53.59604,320.40836 2.33316,373.07682c160.6116,151.24775 104.43819,-191.30784 35.64671,-77.31063"/></g><g stroke="#7e00f0"><path d="M92.74837,-23.51269c-38.56931,23.25153 -38.09241,446.52322 -41.63124,524.26375c-5.14605,113.04753 -68.07533,361.31683 0.2003,467.19409c59.11285,91.66824 312.22548,57.4768 401.05133,61.52025c116.17666,5.28849 199.32356,8.09175 306.94863,-43.10947c449.64452,-213.91252 202.26589,-962.97552 -199.31102,-848.85429c-94.55803,26.87176 -84.26812,320.33123 -32.38748,379.01824c148.98536,168.53115 123.86312,-184.51341 43.39601,-75.17589"/></g><g stroke="#8900f0"><path d="M137.00105,-71.25082c-41.31194,20.0077 -80.24599,449.65905 -91.07755,528.23358c-15.75086,114.26031 -102.74265,360.38512 -43.30517,474.20539c51.46081,98.54528 311.54601,87.41375 401.32479,99.78982c117.42302,16.18685 201.55334,26.7753 315.5575,-15.16945c476.29557,-175.2401 294.97245,-958.55225 -123.24278,-880.12065c-98.4758,18.46804 -115.36093,317.27809 -68.16913,381.67497c135.52044,184.9282 142.90023,-175.74007 51.04645,-72.25972"/></g><g stroke="#9500f0"><path d="M186.47986,-115.35605c-43.77794,16.45404 -123.27863,448.75635 -141.58321,527.47019c-26.61787,114.46289 -137.79301,356.08418 -88.08337,477.10019c43.03847,104.77533 307.95876,117.69359 397.89671,138.60829c117.6312,27.35465 202.00461,45.92979 321.57872,13.9855c499.56615,-133.45939 388.5163,-945.0927 -43.1089,-904.44886c-101.6334,9.57028 -146.58258,311.17284 -104.69646,380.90358c120.28414,200.24541 161.34778,-165.00377 58.51899,-68.56303"/></g><g stroke="#a100f0"><path d="M240.88236,-155.26765c-45.93338,12.61457 -166.79855,443.68218 -192.68939,521.81486c-37.64955,113.61779 -172.89561,348.33794 -133.7392,475.70549c33.90151,110.27447 301.39685,148.03096 390.67077,177.61367c116.76271,38.69168 200.61049,65.38363 324.86229,44.11169c519.109,-88.87159 482.0081,-922.41176 40.44636,-921.35635c-103.97313,0.24851 -177.63096,301.96828 -141.63692,376.59126c103.36391,214.29441 179.00389,-152.34104 65.73397,-64.09471"/></g><g stroke="#ac00f0"><path d="M299.84693,-190.45055c-47.74645,8.51696 -210.39719,434.34197 -243.91729,511.15382c-48.74375,111.69708 -207.70914,337.10307 -179.85674,469.88669c24.11453,114.9637 291.82161,178.13131 379.58635,216.43117c114.78883,50.09297 197.32081,84.95702 325.28151,74.94822c534.60428,-41.81553 574.53217,-890.41243 126.72449,-930.42141c-105.44384,-9.42079 -208.19659,289.64727 -178.64368,368.65778c84.86693,226.89406 195.66861,-137.80908 72.61199,-58.87176"/></g><g stroke="#b800f0"><path d="M362.95502,-220.40157c-49.18786,4.19229 -253.653,420.6815 -294.77259,495.42052c-59.79465,108.68285 -241.88501,322.37019 -226.00293,459.54992c13.75066,118.76984 279.22372,207.69369 364.62006,254.67667c111.69117,61.44975 192.10312,104.46355 322.73485,106.2192c545.76352,7.33488 665.15533,-849.08911 214.97861,-931.28905c-106.00167,-19.35536 -237.96562,274.22369 -215.35892,357.05717c64.91954,237.87246 211.14607,-121.48571 79.07464,-52.91935"/></g><g stroke="#c400f0"><path d="M429.73402,-244.65531c-50.23122,-0.32515 -296.13545,402.68841 -344.75013,474.59751c-70.69374,104.56768 -275.07079,304.16489 -271.7317,444.644c2.89098,121.62643 263.62398,236.41369 345.78688,291.96052c107.46209,72.65053 184.9434,123.71202 317.14766,137.63622c552.3334,58.17364 752.93596,-798.52986 304.4199,-923.67632c-105.61064,-29.46784 -266.623,255.74304 -251.41719,341.77899c43.66644,247.06896 225.24656,-103.46906 85.04542,-46.27071"/></g><g stroke="#cf00f0"><path d="M499.66074,-262.78991c-50.85331,-4.99814 -337.40918,380.3934 -393.3388,448.71782c-81.33088,99.35496 -306.91366,282.5483 -316.58809,425.16206c-8.3761,123.47461 245.07391,263.98646 323.14098,327.8913c102.10509,83.5821 175.84666,142.50821 308.47357,168.90102c554.09918,110.26594 836.93347,-738.91784 394.22464,-907.377c-104.24323,-39.66654 -293.85557,234.28281 -286.44894,322.84935c21.26958,254.33606 237.78864,-83.8771 90.45049,-38.96701"/></g><g stroke="#db00f0"><path d="M572.16551,-274.43236c-51.03449,-9.78681 -377.03833,353.87097 -440.02661,417.86588c-91.59533,93.05914 -337.06403,257.6173 -360.11276,401.14265c-19.95553,124.26385 223.65591,290.10978 296.7761,362.0798c95.635,94.13067 164.8374,160.65683 296.69566,199.70822c550.88784,163.15197 916.21784,-670.53183 483.54172,-882.26554c-101.88086,-49.85626 -319.3554,209.95242 -320.08423,300.33154c-2.09297,259.54126 248.60118,-62.84693 95.21955,-31.05717"/></g><g stroke="#e700f0"><path d="M646.63681,-279.26347c-50.7589,-14.64905 -414.59097,323.23973 -484.30585,382.17791c-101.37692,85.70582 -365.17914,229.5045 -401.84649,372.6705c-31.74649,123.95273 199.48323,314.48724 266.82563,394.14303c88.07814,104.18302 151.95981,177.96344 281.82736,229.74831c542.57088,216.3509 989.87937,-593.74567 571.50058,-848.30037c-98.51431,-59.93918 -342.82295,182.89291 -351.95641,274.3263c-26.22849,262.56877 257.52534,-40.53383 99.28659,-22.59749"/></g><g stroke="#f000ee"><path d="M722.42642,-277.02244c-50.01478,-19.54079 -449.64348,288.66226 -525.6783,341.84179c-110.56715,77.33179 -390.92671,198.37769 -441.33479,339.87677c-43.64318,122.50952 172.69955,336.8313 233.46215,423.70821c79.47232,113.62763 137.27779,194.23644 263.91302,258.7106c529.06665,269.36523 1057.03829,-509.02681 657.21956,-805.52625c-94.14404,-69.81577 -363.97035,153.27632 -381.70593,244.97167c-50.93117,263.32106 264.41648,-17.11014 102.59069,-13.65133"/></g><g stroke="#f000e2"><path d="M798.85505,-267.51086c-48.79465,-24.41647 -481.7851,250.34457 -563.66049,297.09643c-119.0603,67.98491 -413.98849,164.43903 -478.13266,302.93884c-55.53585,119.91276 143.47829,356.86645 196.89668,450.41677c69.86672,122.35587 120.87481,209.28908 243.02826,286.2864c510.34233,321.68545 1116.85436,-416.93391 739.81448,-754.07602c-88.78037,-79.38577 -382.52455,121.30465 -408.98415,212.44257c-75.98388,261.7203 269.14594,7.23603 105.07677,-4.28858"/></g><g stroke="#f000d6"><path d="M875.21844,-250.59616c-47.09547,-29.22941 -510.62226,208.53501 -597.78887,248.23059c-126.7546,57.72392 -434.06383,127.92384 -511.80919,262.07964c-67.31172,116.15172 112.02155,374.33224 157.37749,473.92827c59.32171,130.26314 102.85353,222.94143 219.27993,312.17206c486.41539,372.79476 1168.53622,-318.11336 818.40742,-694.17126c-82.44371,-88.54915 -398.23041,87.20858 -433.45702,176.94987c-101.16007,257.70959 271.60274,32.30237 106.69621,5.41484"/></g><g stroke="#f000cb"><path d="M950.79372,-226.21454c-44.91884,-33.9323 -535.783,163.52286 -627.62494,195.58119c-133.55329,46.61809 -450.87306,89.09905 -541.95226,217.56651c-78.85612,111.22677 78.55881,388.98623 115.18846,493.92425c47.90847,137.25002 83.3352,235.02232 192.80574,336.0722c457.35467,422.17415 1211.35044,-213.29494 892.13566,-626.12227c-75.16448,-97.20713 -410.8537,51.24585 -454.80885,138.73914c-126.22579,251.25404 271.69508,57.87397 107.40757,15.3776"/></g><g stroke="#f000bf"><path d="M1024.84625,-194.3732c-42.27102,-38.47759 -556.92112,115.63639 -652.76015,139.53106c-139.36574,34.74678 -464.16079,48.26129 -568.17302,169.70958c-90.0535,105.1496 43.34525,400.60683 70.64715,510.11191c35.70856,143.22335 62.45896,245.37132 163.77372,357.70283c423.28083,469.30744 1244.63017,-103.28652 960.16057,-550.32701c-66.98314,-105.26319 -420.18386,13.69933 -472.74581,98.08909c-150.94188,242.34163 269.35172,83.72525 107.17713,25.51369"/></g><g stroke="#f000b3"><path d="M1096.63656,-155.15192c-39.16302,-42.81802 -573.72021,65.24051 -672.82072,80.50625c-144.10846,22.1989 -473.69898,5.73461 -590.11035,118.85971c-100.78864,97.9434 6.65987,408.99597 24.10242,522.22759c22.81337,148.09735 40.3808,253.84047 132.38117,376.79437c384.36642,513.68649 1267.78333,11.03211 1021.67654,-467.26924c-57.94998,-112.62409 -426.0367,-25.1252 -486.99937,55.30949c-175.06619,230.98387 264.52315,109.62185 105.9794,35.73307"/></g><g stroke="#f000a8"><path d="M1165.42754,-108.70397c-35.6106,-46.90705 -585.89752,12.73403 -687.47206,18.97285c-147.70612,9.07226 -479.28985,-38.13205 -607.435,65.40596c-110.94772,89.64292 -31.19674,413.98162 -24.06831,530.04007c9.32338,151.7946 17.27248,260.29614 98.85343,393.09472c340.83534,554.81638 1280.30014,128.71628 1075.91964,-377.51572c-48.12482,-119.20083 -428.25679,-64.90153 -497.32956,10.73889c-198.35589,217.21622 257.18259,135.32284 103.79759,45.94257"/></g><g stroke="#f0009c"><path d="M1230.49179,-55.25627c-31.63421,-50.69935 -593.20743,-41.4535 -696.42301,-44.56677c-150.09245,-4.52721 -480.76852,-82.96771 -619.85364,9.77263c-120.41952,80.29433 -69.90488,415.42007 -73.46209,533.35355c-4.65252,154.24698 -6.67986,264.62059 63.44229,406.3721c292.96185,592.22064 1281.76007,248.76423 1122.17613,-281.71253c-37.57672,-124.90966 -426.71968,-105.28578 -503.52795,-35.25804c-220.56989,201.09828 247.32679,160.58286 100.62395,56.04665"/></g><g stroke="#f00091"><path d="M1291.11895,4.89113c-27.2589,-54.15128 -595.44479,-96.86528 -699.42966,-109.57796c-151.21112,-18.48632 -478.00535,-128.38254 -627.11247,-47.58408c-129.09654,69.95508 -109.1284,413.19799 -123.65382,532.01045c-18.99802,155.39662 -31.27713,266.71354 26.42416,416.4178c241.069,625.44628 1271.83799,370.12564 1159.7906,-180.58056c-26.38344,-129.67303 -421.33381,-145.91933 -505.42046,-82.29355c-241.4712,182.7138 234.97657,185.15447 96.46006,65.94835"/></g><g stroke="#f00085"><path d="M1346.62303,71.36637c-22.51417,-57.22135 -592.4478,-153.02115 -696.29884,-175.49833c-151.0165,-32.68552 -470.90805,-173.97119 -629.00067,-106.17983c-136.87616,58.69357 -148.51764,407.23421 -174.19992,525.89376c-33.59025,155.19661 -56.30901,266.49352 -11.90212,423.04874c185.5266,654.06876 1250.3095,491.71082 1188.17371,-74.91014c-14.63092,-133.42042 -412.04212,-186.43205 -502.8698,-129.96004c-260.82935,162.17037 220.17718,208.7905 91.31702,75.55013"/></g><g stroke="#f00079"><path d="M1396.34964,143.72773c-17.43381,-59.87065 -584.10056,-209.42168 -686.89109,-241.74262c-149.47436,-46.99996 -459.42337,-219.31642 -625.35337,-165.5062c-143.66175,46.58874 -187.71252,397.48126 -224.64222,514.92908c-48.30091,153.61178 -81.55571,263.89908 -51.21768,426.10982c126.74865,677.69683 1217.05537,612.4004 1206.80937,34.44511c-2.41259,-136.08928 -398.82346,-226.44559 -495.77764,-177.83357c-278.4228,139.59889 202.9984,231.24649 85.21557,84.7549"/></g><g stroke="#f0006e"><path d="M1439.68309,221.46644c-12.05565,-62.06332 -570.33521,-265.55268 -671.12326,-307.70786c-146.56242,-61.30057 -443.53852,-263.9929 -616.05432,-225.03513c-149.36371,33.72953 -226.34583,383.92656 -274.51208,499.08637c-62.99736,150.61925 -106.78992,258.88988 -91.18624,425.47609c65.19028,695.97699 1172.06506,731.05561 1215.26146,146.57514c10.17132,-137.62575 -381.69352,-265.57693 -484.08647,-225.47765c-294.04128,115.15288 183.53443,252.2831 78.18609,93.46689"/></g><g stroke="#f00062"><path d="M1476.05314,304.01006c-6.42126,-63.76695 -551.13369,-320.88978 -648.97055,-372.77884c-142.2709,-75.45523 -423.28218,-307.57112 -601.03803,-284.22359c-153.90052,20.21424 -264.04662,366.59333 -323.33473,478.38112c-77.54382,146.20893 -131.77879,251.44749 -131.45703,421.05456c1.3443,708.59781 1115.43924,846.52884 1213.17977,260.52108c23.01465,-137.98537 -360.70552,-303.44195 -467.781,-272.44721c-307.48808,89.00743 161.90347,271.66855 70.26854,101.59266"/></g><g stroke="#f00056"><path d="M1504.94161,390.72669c-0.57569,-64.95297 -526.52897,-374.90333 -620.46799,-436.33376c-136.6028,-89.32997 -398.72514,-349.62149 -580.29159,-342.51847c-157.19973,6.14978 -300.44368,345.54114 -370.63372,452.87528c-91.80261,140.38394 -156.28615,241.57606 -171.66782,412.78587c-64.26278,715.29383 1047.39119,957.67455 1200.3053,375.2834c36.00619,-137.13378 -335.95053,-339.65912 -446.88928,-318.29264c-318.58224,61.35802 138.24715,289.18103 61.51225,109.04203"/></g><g stroke="#f0004b"><path d="M1525.8884,480.92968c5.43296,-65.59699 -496.60586,-427.06334 -585.71147,-497.75012c-129.57423,-102.79021 -369.98051,-389.71844 -553.85588,-399.36175c-159.19879,-8.34915 -335.16916,320.86611 -415.93543,422.67763c-105.63543,133.16082 -180.07463,229.30282 -211.44822,400.64554c-131.07507,715.84914 968.24729,1063.36038 1176.4747,489.83069c49.03064,-135.0472 -307.55738,-373.85327 -421.48337,-362.5641c-327.16064,32.41905 112.72967,304.61108 51.97566,115.72904"/></g><g stroke="#f0003f"><path d="M1538.49724,573.88313c11.55389,-65.67916 -461.50128,-476.84463 -544.85807,-556.41064c-121.21449,-115.70207 -337.20356,-427.44462 -521.82637,-454.19571c-159.84592,-23.16102 -367.86213,292.70082 -458.77376,387.94376c-118.90468,124.56969 -202.90795,214.67825 -250.42298,384.645c-198.51204,710.10049 878.44621,1162.47828 1141.62394,603.10887c61.96962,-131.71292 -275.6923,-405.65928 -391.67955,-404.81581c-333.07997,2.42221 85.53665,317.76382 41.72597,121.57283"/></g><g stroke="#f00033"><path d="M1542.44082,668.80785c17.73403,-65.18445 -421.40412,-523.7319 -498.12589,-611.70931c-111.56608,-127.93364 -300.59113,-462.39507 -484.35334,-506.4683c-159.10082,-38.15848 -398.17223,261.21376 -498.69467,348.87558c-131.47482,114.65421 -224.55324,197.77614 -288.21557,364.83221c-265.9735,697.94004 778.53723,1253.95567 1095.79105,714.05081c74.70274,-127.12967 -240.55805,-434.72584 -357.63822,-444.61038c-336.21851,-28.38537 56.87391,328.46114 30.83868,126.49857"/></g><g stroke="#f00028"><path d="M1537.4654,764.88787c23.91852,-64.10285 -376.55449,-567.22492 -445.79328,-663.05746c-100.68459,-139.3563 -260.38066,-494.18136 -441.64166,-555.63854c-156.93528,-53.20945 -425.7632,226.60855 -535.26087,305.72035c-143.21365,103.47152 -244.78328,178.69334 -324.45169,341.292c-332.84498,679.31751 669.17721,1336.76647 1039.1179,821.58625c87.10875,-121.30784 -202.39281,-460.71908 -319.56325,-481.52323c-336.47775,-59.74318 26.96584,336.54381 19.39704,130.43828"/></g><g stroke="#f0001c"><path d="M1523.39477,861.27752c30.05119,-62.42964 -327.24253,-606.84357 -388.1974,-709.88967c-88.63841,-149.846 -216.84872,-522.43565 -393.94993,-601.1819c-153.33375,-68.17829 -450.31643,189.12268 -568.05627,258.76933c-153.99371,91.09191 -263.3788,157.54937 -358.76291,314.14603c-398.50326,654.24189 551.12671,1409.94181 971.85104,924.65197c99.06661,-114.26965 -161.46863,-483.32611 -277.70098,-515.14687c-333.78383,-91.37951 -3.94632,341.87334 7.49139,133.33161"/></g><g stroke="#f00010"><path d="M1500.13354,957.10877c36.07505,-60.16551 -273.80668,-642.13288 -325.7323,-751.6697c-75.5084,-159.28457 -170.30925,-546.81458 -341.58917,-642.59567c-148.29368,-82.92701 -471.53432,149.02597 -596.69041,208.35586c-163.69354,77.59846 -280.13079,134.48573 -390.79032,283.55242c-462.32212,622.78261 425.24483,1472.58052 894.34155,1022.20202c110.4567,-106.04918 -118.08957,-502.25848 -232.33874,-545.09514c-328.08874,-123.0138 -35.60638,344.33374 -4.7815,135.1266"/></g><g stroke="#f00005"><path d="M1467.66973,1051.49908c41.93285,-57.31664 -216.63148,-672.66784 -258.84633,-787.89614c-61.38734,-167.56092 -121.11134,-567.0031 -284.92095,-679.40413c-141.82591,-97.31651 -489.14357,106.61871 -620.80271,154.85313c-172.19897,63.08653 -294.84262,109.66499 -420.1881,249.70498c-523.67823,585.07012 292.48314,1523.85902 807.04387,1113.21802c121.16197,-96.69232 -72.58946,-517.25538 -183.803,-571.00732c-319.37135,-154.35915 -67.74539,343.83313 -17.31923,135.78034"/></g><g stroke="#f00700"><path d="M1426.07662,1143.5594c47.56758,-53.89481 -156.14488,-698.05804 -188.03899,-818.1079c-46.37929,-174.57225 -69.63663,-582.71797 -224.35501,-711.16367c-133.95475,-111.20793 -502.89826,62.2294 -640.06648,98.67142c-179.40438,47.66306 -307.33219,83.26972 -446.62706,212.8321c-581.95711,541.29591 153.87857,1563.04074 710.51363,1196.71938c131.06907,-86.25652 -25.32934,-528.0867 -132.45706,-592.55207c-307.6381,-185.12486 -100.0839,340.30504 -30.01466,135.25955"/></g><g stroke="#f01300"><path d="M1375.51375,1232.40249c52.92301,-49.91737 -92.81507,-717.95209 -113.85731,-841.88938c-30.59889,-180.22524 -16.29637,-593.71116 -160.34636,-737.46758c-124.71809,-124.46392 -512.58272,16.21226 -654.19271,40.255c-185.21384,31.44586 -317.43395,55.50118 -469.79814,173.19533c-636.55911,491.71193 10.54532,1589.48489 605.40444,1271.77334c140.06957,-74.81052 23.30537,-534.55582 -78.69836,-609.43117c-292.92357,-215.01915 -132.33434,333.70961 -42.75679,133.54109"/></g><g stroke="#f01e00"><path d="M1316.2272,1317.15129c57.94428,-45.40719 -27.14688,-732.04167 -36.89159,-858.87533c-14.17041,-184.43702 38.47183,-599.77282 -93.39191,-757.95068c-114.16726,-136.94996 -518.01419,-31.05563 -662.93354,-19.92138c-189.54221,14.56265 -325.00081,26.57774 -489.41567,131.08758c-686.90537,436.62948 -136.33404,1602.65437 492.46373,1337.50471c148.061,-62.43394 72.90802,-536.50215 -22.95547,-621.38299c-275.29067,-243.75184 -164.20366,324.03448 -55.43174,130.61242"/></g><g stroke="#f02a00"><path d="M1248.54899,1396.94739c62.57842,-40.39256 40.32223,-740.06537 42.22925,-868.75526c2.77313,-187.13628 94.20761,-600.73409 -24.02663,-772.29356c-102.36689,-148.53573 -519.04519,-79.17737 -666.08546,-81.35633c-192.31618,-2.84989 -329.90586,-3.26676 -505.22059,86.83097c-732.4437,376.41743 -285.51835,1602.12297 372.5276,1393.10527c154.94797,-49.21673 123.05414,-533.80338 34.31536,-628.18567c-254.83066,-271.03714 -195.39589,311.29546 -67.92374,126.47187"/></g><g stroke="#f03600"><path d="M1172.89568,1470.95945c66.77485,-34.90704 109.02655,-741.81201 122.84281,-871.27745c20.09111,-188.26407 150.43175,-596.46944 47.18068,-780.2265c-89.39449,-159.09637 -515.56563,-127.73963 -663.49204,-143.526c-193.47518,-20.64723 -332.04398,-33.78495 -516.98334,40.7744c-772.65426,311.49992 -435.71835,1587.58154 246.51472,1437.84272c160.64324,-35.25852 173.30506,-526.37733 92.63394,-629.66005c-231.66282,-296.59644 -225.61491,295.53696 -80.11623,121.12893"/></g><g stroke="#f04100"><path d="M1089.76616,1538.39153c70.48597,-28.98923 178.37691,-737.12366 204.25875,-866.25253c37.63646,-187.77463 206.65024,-586.89876 119.63212,-781.53298c-75.34005,-168.51378 -507.50455,-176.31615 -655.04639,-205.88858c-192.9722,-38.67823 -331.33326,-64.71793 -524.50667,-6.7092c-807.05509,242.35348 -585.60778,1558.84322 115.41937,1471.06899c165.06862,-20.66792 223.21174,-514.1836 151.50012,-625.67213c-205.9339,-320.16102 -254.5672,276.8321 -91.8929,114.60434"/></g><g stroke="#f04d00"><path d="M999.73854,1598.49125c73.6676,-22.68252 247.76567,-725.89813 285.76471,-853.55639c55.25687,-185.63613 262.35864,-571.98896 192.70564,-776.05273c-60.30538,-176.67785 -494.83155,-224.47149 -640.69309,-267.88896c-190.7745,-56.78637 -327.71622,-95.79753 -527.62804,-55.22585c-835.20739,169.50358 -733.83512,1515.84757 -19.69639,1492.228c168.15596,-5.56162 272.3188,-497.2247 210.39811,-616.13524c-177.8173,-341.47478 -281.96466,255.28264 -103.13878,106.93016"/></g><g stroke="#f05800"><path d="M903.46635,1650.55762c76.2795,-16.03479 316.57208,-708.09102 366.63255,-833.13267c72.79616,-181.83114 317.0466,-551.75523 265.76042,-763.68437c-44.40343,-183.48767 -477.5579,-271.76492 -620.42971,-328.9637c-186.86419,-74.81114 -321.16081,-126.74858 -526.2219,-104.36384c-856.72039,93.52072 -879.03562,1458.66361 -157.7113,1500.86261c169.84793,9.93646 320.16856,-475.54689 268.80101,-601.01178c-147.51195,-360.29686 -307.52736,231.01854 -113.74136,98.14963"/></g><g stroke="#f06400"><path d="M801.67391,1693.94858c78.2858,-9.09803 384.1678,-683.71725 446.12477,-804.99454c90.09563,-176.35714 370.20246,-526.26177 338.14248,-744.38742c-27.75744,-188.85259 -455.7372,-317.75443 -594.30788,-388.54608c-181.23868,-92.58946 -311.66123,-157.29135 -520.20149,-153.69719c-871.25597,15.01595 -1019.84387,1387.49166 -297.45422,1496.62081c170.09878,25.69629 366.30538,-449.24057 326.17544,-580.31447c-115.24095,-376.40423 -330.98636,204.19733 -123.59167,88.31703"/></g><g stroke="#f07000"><path d="M695.15088,1728.08812c79.65544,-1.92795 449.92258,-652.85205 523.50126,-769.22596c106.99552,-169.22682 421.31801,-495.6222 409.19047,-718.1839c-10.49999,-192.69331 -429.46572,-362.00079 -562.43383,-446.07134c-173.91099,-109.95714 -299.23842,-187.14408 -509.52044,-202.78935c-878.53279,-65.36404 -1154.90639,1302.664 -437.71405,1479.26097c168.87498,41.58272 410.27983,-418.44032 381.98644,-554.10726c-81.24997,-389.59402 -352.0864,175.00314 -132.58536,77.49739"/></g><g stroke="#f07b00"><path d="M584.74626,1752.47285c80.36252,5.41648 513.21007,-615.63142 598.02606,-725.98222c123.33642,-160.46822 469.89329,-459.9994 478.24172,-685.15929c7.22805,-194.94282 -398.8823,-404.07171 -524.96843,-500.98193c-164.90996,-126.75035 -283.94047,-216.02554 -494.17394,-251.19703c-878.32999,-146.94224 -1282.89447,1204.64427 -577.25024,1448.65623c166.15579,57.45671 451.65303,-383.32447 435.70237,-522.50565c-45.80541,-399.68587 -370.58849,143.64553 -140.62378,65.76604"/></g><g stroke="#f08700"><path d="M471.36157,1766.67804c80.38663,12.8735 573.41374,-572.252 668.97431,-675.48983c138.9608,-150.1248 515.44131,-419.60494 544.6383,-645.46293c25.27867,-195.54724 -364.16785,-443.54595 -482.12676,-552.73286c-154.28023,-142.80721 -265.8426,-243.65767 -474.19961,-298.47423c-870.49036,-229.01699 -1402.51694,1094.02569 -714.8037,1404.79778c161.93363,73.17651 490.00092,-344.11425 486.79992,-485.67664c-9.19228,-406.52395 -386.2725,110.35799 -147.61497,53.20819"/></g><g stroke="#f09300"><path d="M355.94353,1770.36303c79.71321,20.3791 629.93272,-522.97038 735.6391,-618.04579c153.71449,-138.2553 557.4929,-374.69802 607.73326,-599.30784c43.49797,-194.46657 -325.54451,-480.01745 -434.17708,-600.79691c-142.08218,-157.96928 -245.04701,-269.76816 -449.67788,-344.17627c-854.923,-310.86806 -1512.5328,971.52795 -849.10811,1347.79721c156.21449,88.59892 524.91844,-301.0726 534.76909,-443.8381c28.28806,-409.97893 -398.93951,75.39627 -153.47466,39.91822"/></g><g stroke="#f09e00"><path d="M239.47616,1763.27593c78.33371,27.86754 682.18767,-468.10187 797.33842,-554.01612c167.44815,-124.93347 595.60127,-325.58401 666.89675,-546.96992c61.72743,-191.67532 -283.27431,-513.09934 -381.4394,-644.66988c-128.3916,-172.08308 -221.68244,-294.09315 -420.7321,-387.86392c-831.60539,-391.76292 -1611.76365,837.99295 -978.90149,1277.88766c149.01803,103.5806 556.02365,-254.50246 579.11815,-397.25775c66.32036,-409.94962 -408.41402,39.03639 -158.12716,25.99908"/></g><g stroke="#f0aa00"><path d="M122.97236,1745.25757c76.24582,35.27195 729.6265,-408.01866 853.4218,-483.8338c180.01875,-110.2477 629.34661,-272.61241 721.52217,-488.7866c79.80534,-187.16302 -237.65754,-542.42788 -324.28345,-683.87563c-113.29934,-185.00164 -195.90346,-316.37975 -387.52817,-429.1076c-800.58484,-470.9633 -1699.10567,694.37925 -1102.93791,1195.42395c140.37771,117.97939 582.96162,-204.74474 619.37851,-346.25157c104.57819,-406.36443 -414.54606,1.5725 -161.50627,11.56143"/></g><g stroke="#f0b600"><path d="M7.46515,1716.24469c73.45361,42.52492 771.72996,-343.14741 903.27698,-407.99596c191.29102,-94.30046 658.34043,-216.1745 771.03218,-425.1548c97.56821,-180.93457 -189.03064,-567.66621 -263.12618,-717.97101c-96.91068,-196.58593 -167.88952,-336.38858 -350.27378,-467.49143c-761.97936,-547.73185 -1773.54115,541.75541 -1219.99925,1100.88149c130.34074,131.65563 605.40827,-152.17587 655.10947,-291.1818c142.72667,-399.18259 -417.21297,-36.68551 -163.556,-3.27721"/></g><g stroke="#f0c100"><path d="M-106.0015,1676.27221c69.96759,49.5591 808.017,-273.96636 946.33614,-327.06049c201.1388,-77.20761 682.22968,-156.70048 814.88453,-356.52843c114.85221,-173.01049 -137.76379,-588.50793 -198.42881,-746.55051c-79.3447,-206.70628 -137.84376,-353.89625 -309.21728,-502.6174c-715.97782,-621.33893 -1834.14943,381.29214 -1328.90691,994.85414c118.96784,144.47348 623.07384,-97.20501 685.90276,-232.45443c180.42546,-388.39505 -416.32108,-75.41459 -164.23131,-18.39341"/></g></g></g></svg>